<svg xmlns="http://www.w3.org/2000/svg" xmlns:xlink="http://www.w3.org/1999/xlink" width="588.03" height="492.883" viewBox="0 0 588.03 492.883">
  <defs>
    <clipPath id="clip-path">
      <rect id="Rectangle_63" data-name="Rectangle 63" width="167.833" height="126.26" transform="translate(1191.238 2638.517)" fill="none"/>
    </clipPath>
  </defs>
  <g id="Group_427" data-name="Group 427" transform="translate(-1054.47 -2463)">
    <path id="Path_410" data-name="Path 410" d="M1570.209,2950.1a292.872,292.872,0,0,0,72.291-193.081c0-162.38-131.635-294.015-294.015-294.015s-294.015,131.635-294.015,294.015a292.872,292.872,0,0,0,72.291,193.081Z" fill="#fff"/>
    <g id="Group_426" data-name="Group 426">
      <g id="Group_338" data-name="Group 338">
        <path id="Path_411" data-name="Path 411" d="M1549.186,2812.774l-.017-1.6a25.6,25.6,0,0,0,4.611-.475l.3,1.566A27.115,27.115,0,0,1,1549.186,2812.774Zm9.626-1.856-.565-1.492a30.3,30.3,0,0,0,4.214-1.987l.788,1.388A31.968,31.968,0,0,1,1558.812,2810.918Zm8.51-4.807-.976-1.263a35.6,35.6,0,0,0,3.5-3.1l1.133,1.122A37.26,37.26,0,0,1,1567.322,2806.111Zm6.871-6.927-1.268-.969a36.334,36.334,0,0,0,2.6-3.894l1.383.8A38.13,38.13,0,0,1,1574.193,2799.184Zm4.893-8.43-1.467-.63a45.009,45.009,0,0,0,1.626-4.413l1.524.474A46.934,46.934,0,0,1,1579.086,2790.754Zm2.9-9.276-1.562-.327c.315-1.5.571-3.072.763-4.655l1.585.192C1582.572,2778.317,1582.308,2779.928,1581.984,2781.478Zm1.183-9.621-1.594-.072c.046-1.012.069-2.058.069-3.107q0-.813-.018-1.625l1.595-.036q.02.829.019,1.661C1583.238,2769.752,1583.214,2770.821,1583.167,2771.857Zm-1.794-9.537q-.116-1.389-.275-2.771-.113-.977-.246-1.948l1.581-.217q.135.988.25,1.982.162,1.406.281,2.823Zm-1.283-9.407c-.292-1.552-.626-3.115-.993-4.644l1.553-.372c.372,1.554.712,3.143,1.008,4.721Zm-243.765-.92c-1.58-.006-3.2-.049-4.821-.126l.076-1.595c1.6.077,3.2.119,4.751.125Zm4.824-.1-.07-1.594c1.6-.072,3.2-.183,4.737-.333l.154,1.588C1344.4,2751.711,1342.782,2751.825,1341.149,2751.9Zm-14.454-.362c-1.483-.134-2.994-.3-4.491-.486l-.3-.038.206-1.583.293.037c1.479.187,2.97.349,4.434.48Zm24.073-.582-.247-1.576c1.581-.248,3.147-.544,4.656-.88l.347,1.558C1353.983,2750.4,1352.382,2750.7,1350.768,2750.953Zm-33.627-.631c-1.589-.255-3.183-.539-4.74-.843l.306-1.567c1.539.3,3.117.582,4.688.835Zm43.073-1.491-.458-1.529c1.53-.459,3.033-.976,4.467-1.536l.581,1.487C1363.33,2747.828,1361.785,2748.359,1360.214,2748.831Zm-52.523-.359c-1.576-.366-3.148-.763-4.672-1.178l.419-1.539c1.505.41,3.057.8,4.614,1.163Zm-9.3-2.536c-1.538-.485-3.075-1.007-4.566-1.548l.546-1.5c1.47.535,2.984,1.049,4.5,1.527Zm70.851-.646-.711-1.429c1.418-.705,2.8-1.477,4.11-2.3l.846,1.353C1372.139,2743.765,1370.711,2744.562,1369.247,2745.29Zm208.635-1.613c-.437-1.5-.917-3.029-1.429-4.529l1.51-.516c.52,1.524,1.008,3.071,1.452,4.6Zm-288.545-1.04c-1.493-.621-2.977-1.28-4.41-1.959l.684-1.443c1.409.668,2.869,1.317,4.338,1.928Zm88.142-2.507-.983-1.257a42.985,42.985,0,0,0,3.537-3.091l1.114,1.143A44.711,44.711,0,0,1,1377.479,2740.13Zm-96.86-1.632c-1.423-.767-2.832-1.577-4.187-2.406l.832-1.362c1.331.815,2.715,1.61,4.113,2.364Zm294.2-3.81c-.575-1.465-1.191-2.94-1.831-4.384l1.459-.646c.649,1.465,1.274,2.961,1.857,4.448Zm-302.434-1.237c-1.331-.924-2.638-1.892-3.886-2.876l.988-1.253c1.223.965,2.5,1.913,3.808,2.819Zm112.054-.124-1.238-1.007a40.212,40.212,0,0,0,2.742-3.807l1.347.856A41.8,41.8,0,0,1,1384.438,2733.327Zm-119.643-5.866c-1.194-1.072-2.367-2.2-3.484-3.365l1.148-1.107c1.092,1.133,2.237,2.238,3.4,3.284Zm306.176-1.46c-.692-1.4-1.429-2.819-2.192-4.217l1.4-.765c.773,1.418,1.52,2.856,2.221,4.275Zm-181.311-.893-1.437-.7a43.063,43.063,0,0,0,1.813-4.333l1.5.535A44.809,44.809,0,0,1,1389.66,2725.108Zm-131.584-4.618c-1.031-1.237-2.03-2.524-2.97-3.828l1.3-.933c.918,1.274,1.893,2.531,2.9,3.738Zm308.345-2.835c-.8-1.344-1.649-2.7-2.515-4.036l1.339-.868c.877,1.35,1.733,2.725,2.546,4.086Zm-173.487-1.7-1.551-.378c.366-1.5.667-3.055.894-4.623l1.579.228C1393.622,2712.8,1393.311,2714.4,1392.934,2715.951Zm-140.515-3.318c-.849-1.374-1.654-2.791-2.393-4.213l1.415-.737c.722,1.388,1.508,2.771,2.335,4.111Zm308.824-2.955c-.9-1.28-1.842-2.574-2.8-3.845l1.274-.962c.971,1.286,1.924,2.595,2.834,3.89Zm-166.912-3.333-1.594-.085c.052-.976.079-1.969.079-2.952q0-.882-.028-1.766l1.6-.05q.027.909.028,1.816C1394.412,2704.319,1394.384,2705.341,1394.331,2706.345Zm-146.381-2.3c-.639-1.491-1.223-3.013-1.737-4.525l1.512-.514c.5,1.474,1.069,2.957,1.691,4.41Zm307.557-1.955c-.982-1.212-2.011-2.44-3.057-3.649l1.206-1.044c1.058,1.222,2.1,2.463,3.091,3.689Zm-163.056-5.255c-.172-1.548-.409-3.12-.7-4.672l1.567-.3c.3,1.592.546,3.2.723,4.793Zm156.825-1.943c-1.064-1.152-2.169-2.313-3.285-3.449l1.139-1.118c1.127,1.148,2.243,2.32,3.318,3.484Zm-304.434-.025c-.4-1.58-.726-3.179-.98-4.753l1.576-.254c.247,1.529.567,3.083.951,4.62Zm297.759-6.772c-1.137-1.09-2.31-2.182-3.488-3.246l1.069-1.184c1.19,1.074,2.375,2.177,3.524,3.278Zm-151.909-.54c-.406-1.516-.874-3.037-1.391-4.519l1.508-.525c.529,1.519,1.008,3.077,1.425,4.631Zm-147.389-2.265c-.084-1.2-.127-2.414-.127-3.6q0-.629.016-1.256l1.6.039q-.015.609-.016,1.217c0,1.152.041,2.327.123,3.491Zm292.226-3.584c-1.2-1.025-2.44-2.048-3.674-3.039l1-1.244c1.244,1,2.492,2.033,3.708,3.069Zm-147.943-3.077c-.625-1.45-1.309-2.886-2.033-4.268l1.415-.74c.742,1.418,1.442,2.89,2.083,4.375Zm-239.753-.049-.1-1.593a15.437,15.437,0,0,0,4.27-.862l.545,1.5A17.033,17.033,0,0,1,1147.833,2678.576Zm-4.946-.247a30.038,30.038,0,0,1-4.776-1.164l.5-1.516a28.443,28.443,0,0,0,4.518,1.1Zm102.249-2.557-1.583-.2a47.455,47.455,0,0,1,.846-4.793l1.555.358A46.081,46.081,0,0,0,1245.136,2675.772Zm282.963-.044q-.545-.413-1.092-.82-1.368-1.02-2.744-2.016l.936-1.293q1.386,1,2.762,2.029c.368.275.735.55,1.1.828Zm-394.517-.414a40.381,40.381,0,0,1-4.25-2.408l.869-1.338a38.506,38.506,0,0,0,4.08,2.312Zm249.627-5.063c-.8-1.286-1.655-2.551-2.54-3.759l-.111-.15,1.285-.949.113.155c.909,1.241,1.786,2.539,2.608,3.859Zm137.164-.119q-1.965-1.364-3.946-2.682l.884-1.328q1.993,1.326,3.972,2.7Zm-394.974-.123a39.672,39.672,0,0,1-3.556-3.349l1.164-1.091a38.224,38.224,0,0,0,3.413,3.213Zm121.841-3.4-1.512-.511c.511-1.513,1.111-3.034,1.782-4.522l1.454.656C1248.315,2663.678,1247.735,2665.15,1247.24,2666.614Zm265.19-1.767q-2.018-1.285-4.049-2.523l.831-1.363q2.044,1.247,4.075,2.54Zm-393.686-1.974a30.919,30.919,0,0,1-2.511-4.22l1.434-.7a29.143,29.143,0,0,0,2.382,4Zm258.885-.265c-.96-1.157-2.01-2.366-3.12-3.593l1.185-1.071c1.124,1.244,2.188,2.471,3.163,3.645Zm126.653-2.727q-2.071-1.208-4.157-2.369l.776-1.394q2.1,1.17,4.185,2.384Zm-253.182-1.843-1.389-.787c.785-1.387,1.654-2.771,2.579-4.115l1.314.906C1252.7,2655.347,1251.862,2656.691,1251.1,2658.038Zm120.154-2.5c-1.071-1.109-2.2-2.247-3.363-3.385l1.118-1.139c1.17,1.147,2.312,2.3,3.392,3.415Zm124.669-.307q-2.117-1.124-4.246-2.2l.721-1.424q2.144,1.086,4.273,2.216Zm-381.43-1.189a22.81,22.81,0,0,1-.6-3.054c-.075-.6-.128-1.216-.162-1.83l1.594-.085c.031.577.082,1.155.152,1.718a21.01,21.01,0,0,0,.557,2.837Zm372.9-3.13q-2.156-1.039-4.325-2.033l.666-1.451q2.183,1,4.353,2.047Zm-230.949-.642-1.236-1.009c1.005-1.231,2.086-2.454,3.212-3.634l1.154,1.1C1258.473,2647.877,1257.421,2649.068,1256.441,2650.267Zm108-1.417q-1.72-1.609-3.522-3.225l1.066-1.188q1.812,1.625,3.546,3.247Zm114.26-1.925q-2.192-.954-4.4-1.867l.609-1.475q2.22.918,4.425,1.879Zm-363.218-2.5-1.584-.186a34.841,34.841,0,0,1,.919-4.8l1.543.407A33.424,33.424,0,0,0,1115.485,2644.428Zm147.475-1-1.07-1.182c1.184-1.073,2.428-2.124,3.7-3.126l.988,1.254C1265.335,2641.351,1264.118,2642.379,1262.96,2643.426Zm206.916-.153q-2.225-.872-4.461-1.7l.555-1.5q2.25.836,4.489,1.713Zm-112.54-.806q-1.794-1.551-3.642-3.093l1.023-1.225q1.855,1.549,3.663,3.11Zm103.586-2.518q-2.253-.79-4.517-1.541l.5-1.515q2.28.756,4.545,1.551Zm-190.53-2.382-.9-1.316c1.314-.9,2.686-1.779,4.077-2.607l.816,1.371C1273.02,2635.826,1271.678,2636.685,1270.392,2637.567Zm181.469-.621q-2.278-.713-4.568-1.384l.45-1.532q2.3.678,4.593,1.392Zm-101.856-.6q-1.856-1.5-3.741-2.971l.981-1.258q1.9,1.481,3.763,2.987Zm-232.172-.953-1.484-.588a47.783,47.783,0,0,1,2.024-4.424l1.416.735A46.856,46.856,0,0,0,1117.833,2635.393Zm324.87-1.139q-2.3-.634-4.609-1.232l.4-1.545q2.325.6,4.636,1.239Zm-164.177-1.533-.729-1.42c1.426-.732,2.9-1.43,4.369-2.075l.639,1.462C1281.362,2631.32,1279.923,2632,1278.526,2632.721Zm154.939-.856q-2.319-.562-4.646-1.086l.35-1.557q2.342.528,4.671,1.091Zm-90.993-1.4q-1.914-1.447-3.836-2.853l.942-1.288q1.932,1.413,3.855,2.867Zm81.686-.7q-2.334-.49-4.676-.946l.3-1.567q2.355.459,4.7.951Zm-136.954-.845-.557-1.5c1.477-.549,3.014-1.074,4.567-1.562l.478,1.523C1290.165,2627.863,1288.655,2628.38,1287.2,2628.919Zm127.589-.979q-2.346-.422-4.7-.812l.261-1.575q2.367.393,4.722.816Zm-292.645-.9-1.345-.858c.849-1.331,1.78-2.67,2.769-3.981l1.274.962C1123.882,2624.436,1122.975,2625.74,1122.148,2627.036Zm283.233-.656q-2.356-.358-4.721-.686l.22-1.581q2.375.33,4.741.689Zm-109.126-.311-.406-1.543c1.522-.4,3.1-.778,4.689-1.123l.338,1.559C1299.309,2625.3,1297.755,2625.675,1296.255,2626.069Zm99.676-1q-2.364-.3-4.737-.567l.181-1.585q2.382.27,4.756.569Zm-61.174-.249q-1.969-1.391-3.926-2.724l.9-1.319q1.967,1.34,3.949,2.739Zm-29.213-.771-.276-1.572c1.549-.272,3.15-.523,4.758-.747l.22,1.581C1308.656,2623.531,1307.074,2623.779,1305.544,2624.048Zm80.907-.055q-2.37-.241-4.749-.455l.143-1.59q2.39.216,4.768.457Zm-9.5-.856q-2.376-.187-4.759-.35l.109-1.592q2.391.163,4.775.35Zm-61.976-.405-.169-1.587c1.549-.165,3.161-.313,4.791-.44l.123,1.591C1318.1,2622.422,1316.508,2622.569,1314.973,2622.732Zm52.455-.244q-2.381-.138-4.766-.251l.076-1.595q2.394.115,4.782.253Zm-9.534-.457q-2.382-.09-4.771-.16l.047-1.6q2.4.069,4.784.161Zm-33.415-.045-.086-1.593q2.4-.129,4.8-.2l.05,1.595Q1326.861,2621.86,1324.479,2621.986Zm23.871-.232q-2.388-.048-4.779-.076l.018-1.6q2.4.029,4.793.076Zm-14.334-.076-.022-1.6q2.283-.033,4.562-.031h.236v1.6h-.236Q1336.288,2621.647,1334.016,2621.678Zm-206.185-2.187-1.2-1.051c1.044-1.194,2.155-2.383,3.3-3.536l1.13,1.127C1129.939,2617.159,1128.852,2618.323,1127.831,2619.491Zm199.027-.049q-2.032-1.328-4.024-2.573l.846-1.353q2,1.252,4.05,2.591Zm-8.1-5.054c-1.413-.836-2.805-1.634-4.138-2.371l.773-1.4c1.346.745,2.752,1.551,4.179,2.395Zm-184.247-1.609-1.06-1.193c1.187-1.055,2.432-2.1,3.7-3.106l.991,1.251C1136.9,2610.718,1135.673,2611.744,1134.508,2612.779Zm175.9-3c-1.488-.756-2.93-1.446-4.286-2.054l.651-1.456c1.38.618,2.846,1.32,4.358,2.087Zm-168.475-2.9-.923-1.3c1.3-.92,2.645-1.825,4.008-2.691l.855,1.346C1144.538,2605.091,1143.211,2605.981,1141.937,2606.885Zm159.814-1.07q-2.214-.946-4.405-1.842l.6-1.477q2.2.9,4.429,1.852Zm-8.838-3.613q-2.245-.875-4.463-1.7l.555-1.5q2.23.828,4.487,1.706Zm-142.969-.412-.79-1.386c1.376-.786,2.8-1.557,4.244-2.292l.726,1.421C1152.706,2600.258,1151.3,2601.017,1149.944,2601.79Zm134.016-2.9q-2.273-.8-4.518-1.54l.5-1.515q2.258.747,4.544,1.548Zm-125.559-1.42-.662-1.451c1.446-.66,2.936-1.3,4.427-1.908l.6,1.479C1161.3,2596.183,1159.827,2596.816,1158.4,2597.466Zm116.5-1.577q-2.3-.714-4.572-1.371l.445-1.533q2.284.661,4.6,1.38Zm-107.692-2-.539-1.5c1.5-.539,3.035-1.057,4.566-1.539l.48,1.522C1170.2,2592.846,1168.686,2593.357,1167.206,2593.888Zm98.525-.651q-2.325-.624-4.621-1.188l.382-1.55q2.312.568,4.652,1.2Zm-89.456-2.21-.422-1.539c1.537-.421,3.107-.821,4.667-1.187l.365,1.554C1179.345,2590.217,1177.793,2590.611,1176.275,2591.027Zm80.191-.07q-2.349-.527-4.666-.992l.315-1.565q2.333.469,4.7,1Zm-9.351-1.881c-1.567-.278-3.15-.541-4.7-.78l.243-1.577c1.566.241,3.161.506,4.74.786Zm-61.579-.225-.308-1.566c1.564-.309,3.159-.595,4.737-.851l.256,1.576C1188.659,2588.262,1187.084,2588.545,1185.536,2588.851Zm52.154-1.224c-1.58-.2-3.173-.39-4.735-.553l.165-1.587c1.576.164,3.182.352,4.775.558Zm-42.76-.3-.2-1.583c1.571-.2,3.18-.38,4.783-.533l.152,1.589C1198.075,2586.952,1196.483,2587.129,1194.93,2587.328Zm33.278-.687c-1.583-.124-3.183-.228-4.756-.31l.082-1.593c1.587.082,3.2.187,4.8.312Zm-23.8-.217-.1-1.593c1.579-.1,3.2-.179,4.8-.233l.054,1.6C1207.572,2586.246,1205.971,2586.324,1204.407,2586.424Zm14.283-.273q-2.05-.049-4.066-.049l-.7,0-.008-1.6.706,0q2.032,0,4.1.05Z"/>
      </g>
      <g id="Group_341" data-name="Group 341">
        <g id="Group_339" data-name="Group 339">
          <rect id="Rectangle_56" data-name="Rectangle 56" width="136.713" height="94.156" transform="translate(1255.739 2732.594)" fill="#9bb8ff"/>
          <path id="Path_412" data-name="Path 412" d="M1393.25,2827.549H1254.941V2731.8H1393.25Zm-136.713-1.6h135.117v-92.561H1256.537Z"/>
        </g>
        <g id="Group_340" data-name="Group 340">
          <rect id="Rectangle_57" data-name="Rectangle 57" width="136.447" height="0.798" transform="translate(1255.872 2742.702)"/>
        </g>
      </g>
      <g id="Group_365" data-name="Group 365">
        <g id="Group_342" data-name="Group 342">
          <rect id="Rectangle_58" data-name="Rectangle 58" width="170.359" height="127.271" transform="translate(1189.949 2638.849)" fill="#e6e6e6"/>
          <path id="Path_413" data-name="Path 413" d="M1361.106,2766.918H1189.151V2638.051h171.955Zm-170.359-1.6h168.764V2639.647H1190.747Z"/>
        </g>
        <g id="Group_350" data-name="Group 350">
          <g id="Group_349" data-name="Group 349" clip-path="url(#clip-path)">
            <g id="Group_343" data-name="Group 343">
              <path id="Path_414" data-name="Path 414" d="M1360.442,2717.313h-26.731v-68.5h.8v67.705h25.933Z"/>
            </g>
            <g id="Group_344" data-name="Group 344">
              <rect id="Rectangle_59" data-name="Rectangle 59" width="26.731" height="0.798" transform="translate(1334.11 2664.715)"/>
            </g>
            <g id="Group_345" data-name="Group 345">
              <rect id="Rectangle_60" data-name="Rectangle 60" width="26.332" height="0.798" transform="translate(1334.11 2677.35)"/>
            </g>
            <g id="Group_346" data-name="Group 346">
              <rect id="Rectangle_61" data-name="Rectangle 61" width="26.731" height="0.798" transform="translate(1334.11 2652.082)"/>
            </g>
            <g id="Group_347" data-name="Group 347">
              <rect id="Rectangle_62" data-name="Rectangle 62" width="26.332" height="0.798" transform="translate(1334.11 2689.984)"/>
            </g>
            <g id="Group_348" data-name="Group 348">
              <path id="Path_415" data-name="Path 415" d="M1201.556,2701.155H1220.1a23.752,23.752,0,0,1,22.5,16.148,23.754,23.754,0,0,1,22.5-16.148h18.541a23.753,23.753,0,0,1,22.5,16.148,23.754,23.754,0,0,1,22.5-16.148h18.541a23.749,23.749,0,0,1,23.749,23.748v42.081H1177.807V2724.9A23.748,23.748,0,0,1,1201.556,2701.155Z" fill="#e6e6e6"/>
              <path id="Path_416" data-name="Path 416" d="M1371.321,2767.384H1177.408V2724.9a24.175,24.175,0,0,1,24.148-24.148h18.54a24.131,24.131,0,0,1,22.5,15.378,24.133,24.133,0,0,1,22.5-15.378h18.541a24.133,24.133,0,0,1,22.5,15.378,24.131,24.131,0,0,1,22.5-15.378h18.54a24.175,24.175,0,0,1,24.148,24.148Zm-193.115-.8h192.317V2724.9a23.376,23.376,0,0,0-23.35-23.35h-18.54a23.333,23.333,0,0,0-22.121,15.876l-.378,1.119-.378-1.119a23.335,23.335,0,0,0-22.121-15.876h-18.541a23.335,23.335,0,0,0-22.121,15.876l-.378,1.119-.378-1.119a23.333,23.333,0,0,0-22.121-15.876h-18.54a23.376,23.376,0,0,0-23.35,23.35Z"/>
            </g>
          </g>
        </g>
        <g id="Group_351" data-name="Group 351">
          <path id="Path_417" data-name="Path 417" d="M1286.367,2669.37l-.133,32.715-24.6-.133v-33.513Z"/>
        </g>
        <g id="Group_352" data-name="Group 352">
          <path id="Path_418" data-name="Path 418" d="M1322.939,2766.306s7.181-71.734-50.27-69.739c-50.071-1.6-47.078,69.739-47.078,69.739Z"/>
        </g>
        <g id="Group_353" data-name="Group 353">
          <path id="Path_419" data-name="Path 419" d="M1305.283,2768.316a161.364,161.364,0,0,0-4.407-36.2l.771-.205a162.25,162.25,0,0,1,4.434,36.406Z" fill="#fff"/>
        </g>
        <g id="Group_354" data-name="Group 354">
          <path id="Path_420" data-name="Path 420" d="M1242.613,2768.316l-.8,0a162.183,162.183,0,0,1,4.434-36.406l.771.205A161.3,161.3,0,0,0,1242.613,2768.316Z" fill="#fff"/>
        </g>
        <g id="Group_355" data-name="Group 355">
          <path id="Path_421" data-name="Path 421" d="M1278.786,2685.063l.266,11.3,5.054.8s-1.2,7.048-10.24,6.782-9.576-6.915-9.576-6.915l4.256-.665v-10.772Z" fill="#fff"/>
          <path id="Path_422" data-name="Path 422" d="M1274.36,2704.354c-.167,0-.335,0-.506-.007-9.293-.274-9.956-7.213-9.961-7.283l-.03-.369,4.284-.669v-10.81l11.028-.573.268,11.382,5.124.809-.068.4C1284.487,2697.3,1283.186,2704.354,1274.36,2704.354Zm-9.618-6.989c.259,1.359,1.687,5.965,9.135,6.184,7.438.242,9.343-4.61,9.743-6.057l-4.959-.783-.263-11.227-9.453.492v10.735Z"/>
        </g>
        <g id="Group_356" data-name="Group 356">
          <rect id="Rectangle_64" data-name="Rectangle 64" width="169.827" height="0.798" transform="translate(1190.216 2648.757)"/>
        </g>
        <g id="Group_357" data-name="Group 357">
          <path id="Path_423" data-name="Path 423" d="M1283.973,2670.434s1.067,9.372-1.995,13.964a10.03,10.03,0,0,1-8.777,4.921,8.886,8.886,0,0,1-7.714-4.057c-2.26-3.058-3.258-5.785-2.526-15.493.354-4.709,3.856-10.373,9.708-9.974C1282.628,2660.474,1283.973,2668.705,1283.973,2670.434Z" fill="#fff"/>
          <path id="Path_424" data-name="Path 424" d="M1273.2,2689.718a9.273,9.273,0,0,1-8.035-4.218c-2.425-3.283-3.323-6.2-2.6-15.761.4-5.28,4.307-10.732,10.134-10.342,11.358.774,11.676,10.935,11.676,11.037.041.344,1.045,9.525-2.062,14.185A10.505,10.505,0,0,1,1273.2,2689.718Zm-1.114-29.544c-5.52,0-8.427,5.628-8.729,9.625-.7,9.308.149,12.112,2.45,15.226a8.541,8.541,0,0,0,7.393,3.9,9.632,9.632,0,0,0,8.445-4.743c2.947-4.42,1.941-13.6,1.93-13.7,0-.14-.3-9.561-10.935-10.286C1272.455,2660.18,1272.27,2660.174,1272.087,2660.174Z"/>
        </g>
        <g id="Group_358" data-name="Group 358">
          <path id="Path_425" data-name="Path 425" d="M1278.121,2658.731s-2.659-3.923-9.841-2.061-10.24,6.184-10.107,20.015,0,46.413,0,46.413h6.383v-53.927s7.847-1.53,11.039-8.711C1277.855,2659.4,1278.121,2658.731,1278.121,2658.731Z"/>
        </g>
        <g id="Group_359" data-name="Group 359">
          <path id="Path_426" data-name="Path 426" d="M1283.84,2722.566h6.117v-43.222s.931-14.495-4.122-18.485c-4.084-3.224-7.847-2.194-7.847-2.194l-3.723,1.795s3.457,9.309,9.575,11.038Z"/>
        </g>
        <g id="Group_360" data-name="Group 360">
          <path id="Path_427" data-name="Path 427" d="M1278.52,2680.209a29.907,29.907,0,0,1-10.439-.2c1.064,4.655,2.661,5.5,5.186,5.586C1277.39,2685.728,1278.52,2680.209,1278.52,2680.209Z" fill="#fff"/>
          <path id="Path_428" data-name="Path 428" d="M1273.414,2686h0l-.158,0c-2.69-.087-4.463-1.079-5.563-5.9l-.137-.6.6.12a29.311,29.311,0,0,0,5.746.552,26.527,26.527,0,0,0,4.539-.353l.586-.113-.119.585C1278.863,2680.522,1277.694,2686,1273.414,2686Zm-4.8-5.48c.987,3.843,2.372,4.606,4.666,4.68l.133,0c2.885,0,4.156-3.171,4.562-4.5a29.8,29.8,0,0,1-4.07.267A30.529,30.529,0,0,1,1268.614,2680.516Z"/>
        </g>
        <g id="Group_361" data-name="Group 361">
          <rect id="Rectangle_65" data-name="Rectangle 65" width="14.163" height="25.135" rx="2.906" transform="translate(1218.409 2663.452)" fill="#3533a2"/>
          <path id="Path_429" data-name="Path 429" d="M1229.666,2688.986h-8.35a3.31,3.31,0,0,1-3.306-3.305v-19.323a3.309,3.309,0,0,1,3.306-3.3h8.35a3.308,3.308,0,0,1,3.3,3.3v19.323A3.309,3.309,0,0,1,1229.666,2688.986Zm-8.35-25.135a2.51,2.51,0,0,0-2.508,2.507v19.323a2.511,2.511,0,0,0,2.508,2.507h8.35a2.511,2.511,0,0,0,2.508-2.507v-19.323a2.511,2.511,0,0,0-2.508-2.507Z"/>
        </g>
        <g id="Group_362" data-name="Group 362">
          <path id="Path_430" data-name="Path 430" d="M1265.75,2674.523l-.655-.457.107-.154a3.505,3.505,0,0,1,1.4-.934,2.8,2.8,0,0,1,.787-.168,4.472,4.472,0,0,1,1.884.433l.569.227-.293.742-.571-.227a3.742,3.742,0,0,0-1.542-.379,2.069,2.069,0,0,0-.566.123,2.7,2.7,0,0,0-1.051.686Z"/>
        </g>
        <g id="Group_363" data-name="Group 363">
          <path id="Path_431" data-name="Path 431" d="M1281.3,2674.673a2.342,2.342,0,0,0-1.84-1.039,5.048,5.048,0,0,0-1.245.172,3.554,3.554,0,0,0-1.607.665l-.536-.591a4.18,4.18,0,0,1,1.964-.852,5.5,5.5,0,0,1,1.455-.191,3.153,3.153,0,0,1,2.476,1.4Z"/>
        </g>
        <g id="Group_364" data-name="Group 364">
          <path id="Path_432" data-name="Path 432" d="M1273.524,2679.431c-.078,0-.149,0-.212-.006l-.859-.038.034-.8.861.038a.931.931,0,0,0,.554-.079c.122-.109.123-.422.124-.525a14.251,14.251,0,0,0-.121-1.655,8.9,8.9,0,0,1,0-2.9,4.762,4.762,0,0,1,2.244-3.07l.4.692a3.952,3.952,0,0,0-1.862,2.547,8.2,8.2,0,0,0,.018,2.643,14.812,14.812,0,0,1,.126,1.749,1.447,1.447,0,0,1-.4,1.118A1.325,1.325,0,0,1,1273.524,2679.431Z"/>
        </g>
      </g>
      <g id="Group_387" data-name="Group 387">
        <g id="Group_366" data-name="Group 366">
          <rect id="Rectangle_66" data-name="Rectangle 66" width="136.713" height="94.156" transform="translate(1132.058 2743.365)" fill="#e6e6e6"/>
          <path id="Path_433" data-name="Path 433" d="M1269.569,2838.319H1131.26v-95.752h138.309Zm-136.713-1.6h135.117v-92.56H1132.856Z"/>
        </g>
        <g id="Group_367" data-name="Group 367">
          <rect id="Rectangle_67" data-name="Rectangle 67" width="136.447" height="0.798" transform="translate(1132.191 2753.472)"/>
        </g>
        <g id="Group_368" data-name="Group 368">
          <path id="Path_434" data-name="Path 434" d="M1189.443,2770.528l-.067,4.754a2.642,2.642,0,0,1-2.826-2.759c-.2-2.992,2.693-2.394,2.693-2.394Z" fill="#fff"/>
          <path id="Path_435" data-name="Path 435" d="M1189.246,2775.685a3.019,3.019,0,0,1-3.094-3.136,2.751,2.751,0,0,1,.61-2.146,2.99,2.99,0,0,1,2.562-.665l.19.039.329.659-.072,5.209-.36.035S1189.351,2775.685,1189.246,2775.685Zm-.572-5.206a1.8,1.8,0,0,0-1.329.47,2.005,2.005,0,0,0-.4,1.547,2.215,2.215,0,0,0,2.035,2.379l.059-4.256-.062-.125C1188.9,2770.486,1188.793,2770.479,1188.674,2770.479Z"/>
        </g>
        <g id="Group_369" data-name="Group 369">
          <path id="Path_436" data-name="Path 436" d="M1205.957,2775.282a2.642,2.642,0,0,0,2.826-2.759c.2-2.992-2.826-2.394-2.826-2.394Z" fill="#fff"/>
          <path id="Path_437" data-name="Path 437" d="M1206.088,2775.685h0c-.1,0-.165-.005-.165-.005l-.362-.035,0-5.844.322-.064a3.234,3.234,0,0,1,2.689.695,2.715,2.715,0,0,1,.611,2.117A3.019,3.019,0,0,1,1206.088,2775.685Zm.269-5.2v4.39a2.214,2.214,0,0,0,2.028-2.378,1.972,1.972,0,0,0-.4-1.519A2.114,2.114,0,0,0,1206.357,2770.484Z"/>
        </g>
        <g id="Group_370" data-name="Group 370">
          <path id="Path_438" data-name="Path 438" d="M1222.557,2837.654h-52.464s2.394-31.518,5.386-44.285c4.987-4.788,21.943-6.783,28.127-5.985a40.217,40.217,0,0,1,15.56,6.184A226.324,226.324,0,0,1,1222.557,2837.654Z"/>
        </g>
        <g id="Group_371" data-name="Group 371">
          <path id="Path_439" data-name="Path 439" d="M1235.324,2837.455h-12.767l-3.391-43.887S1235.723,2804.141,1235.324,2837.455Z"/>
        </g>
        <g id="Group_372" data-name="Group 372">
          <path id="Path_440" data-name="Path 440" d="M1201.877,2778.873l.4,8.511,5.187.931s-1.33,5.985-9.841,5.453-9.043-5.187-9.043-5.187l4.787-1.33v-8.511Z" fill="#fff"/>
          <path id="Path_441" data-name="Path 441" d="M1198.67,2794.2q-.518,0-1.073-.034c-8.744-.546-9.392-5.336-9.415-5.54l-.038-.338,4.823-1.34v-8.613l9.292.145.4,8.568,5.283.948-.09.406C1207.84,2788.46,1206.473,2794.2,1198.67,2794.2Zm-9.62-5.336c.3,1.025,1.784,4.08,8.6,4.5,6.835.429,8.841-3.451,9.305-4.74l-5.058-.908-.4-8.455-7.732-.121v8.409Z"/>
        </g>
        <g id="Group_373" data-name="Group 373">
          <path id="Path_442" data-name="Path 442" d="M1176.742,2792.172s-7.181,1.463-15.692,18.219-9.443,21.678-9.443,21.678,6.517,8.511,13.432,3.191,10.374-20.081,10.374-20.081Z"/>
        </g>
        <g id="Group_374" data-name="Group 374">
          <path id="Path_443" data-name="Path 443" d="M1162.247,2836.856s-13.3,1.6-14.23-10.772.266-39.232.266-39.232l10.24.4,4.256,49.472Z"/>
        </g>
        <g id="Group_375" data-name="Group 375">
          <path id="Path_444" data-name="Path 444" d="M1148.5,2788.991l-.072-.323c-.019-.087-.473-2.225-.075-8.789.422-6.974-.1-12.318-1.567-15.882a2.241,2.241,0,0,1,.091-2.115,1.572,1.572,0,0,1,2.386-.234,2.068,2.068,0,0,1,1.168-.587c.607-.127,1.227.5,1.583.977a1.143,1.143,0,0,1,1.247-.021,3.445,3.445,0,0,1,.969,1.133,1.748,1.748,0,0,1,1.366.494c.972.851,2.744,5.567,3.226,9.225a76.066,76.066,0,0,1,.5,8.331l-.63,7.469Zm-.389-27a.673.673,0,0,0-.568.327,1.459,1.459,0,0,0-.021,1.367c1.532,3.734,2.063,9.044,1.627,16.24a46.67,46.67,0,0,0,.008,8.244l8.8-.278.569-6.727a75.668,75.668,0,0,0-.5-8.193c-.5-3.8-2.268-8.124-2.959-8.729-.534-.466-.793-.281-.8-.277l-.4.322-.2-.482a3.08,3.08,0,0,0-.855-1.127c-.233-.155-.471.091-.553.2l-.354.481-.31-.509c-.288-.478-.776-1.013-1-1.013-.575.12-.736.31-.779.386a.243.243,0,0,0-.032.124l1.248,3.6-1.968-3.262a4.74,4.74,0,0,0-.276-.4A1.1,1.1,0,0,0,1148.108,2761.994Z"/>
        </g>
        <g id="Group_376" data-name="Group 376">
          <path id="Path_445" data-name="Path 445" d="M1157.625,2786.387s2.793.3,3.292-3.591.2-9.874.4-10.872-3.092-1-3.192,2.394-.5,3.192-.5,3.192S1154.034,2783.993,1157.625,2786.387Z" fill="#fff"/>
        </g>
        <g id="Group_377" data-name="Group 377">
          <path id="Path_446" data-name="Path 446" d="M1154.743,2784.842l-.62-.5c1.28-1.581.312-5.884-.17-7.409l.761-.24C1154.79,2776.932,1156.553,2782.607,1154.743,2784.842Z"/>
        </g>
        <g id="Group_378" data-name="Group 378">
          <path id="Path_447" data-name="Path 447" d="M1151.831,2772.183a11.756,11.756,0,0,1-.588-2.738c-.04-.3-.08-.607-.129-.908a16.338,16.338,0,0,0-2.409-6.266l.67-.434a17.181,17.181,0,0,1,2.528,6.574c.049.308.09.619.131.93a10.958,10.958,0,0,0,.541,2.554Z"/>
        </g>
        <g id="Group_379" data-name="Group 379">
          <path id="Path_448" data-name="Path 448" d="M1154.219,2771.114a37.339,37.339,0,0,0-2.805-8.31l.72-.343a38.175,38.175,0,0,1,2.866,8.488Z"/>
        </g>
        <g id="Group_380" data-name="Group 380">
          <path id="Path_449" data-name="Path 449" d="M1155.569,2770.184a22.888,22.888,0,0,0-1.858-6.226l.714-.357a23.714,23.714,0,0,1,1.932,6.463Z"/>
        </g>
        <g id="Group_381" data-name="Group 381">
          <path id="Path_450" data-name="Path 450" d="M1206.266,2761.917l-.4,14.03s-2.261,7.581-8.91,7.049-7.581-7.714-7.581-7.714l.4-13.7a12.01,12.01,0,0,1,9.177-4.056C1205,2757.528,1206.266,2761.917,1206.266,2761.917Z" fill="#fff"/>
          <path id="Path_451" data-name="Path 451" d="M1197.618,2783.421c-.226,0-.456-.009-.693-.028-6.892-.551-7.934-7.985-7.944-8.059l.4-13.891.079-.1a12.3,12.3,0,0,1,9.493-4.212c6.278,0,7.684,4.631,7.7,4.678l.017.059,0,.062-.415,14.133C1206.227,2776.135,1203.98,2783.421,1197.618,2783.421Zm-7.448-21.688-.4,13.561c.034.217.972,6.805,7.214,7.3,5.954.471,8.277-6.092,8.481-6.718l.4-13.907c-.172-.511-1.55-4.046-6.914-4.046A11.8,11.8,0,0,0,1190.17,2761.733Z"/>
        </g>
        <g id="Group_382" data-name="Group 382">
          <path id="Path_452" data-name="Path 452" d="M1202.609,2759.989c-.133,1.729-1.53,2.727-3.591,2.66-.133,1.862-1.161,2.726-2.527,2.793-2.527.266-2.859-.9-2.859-.9s-1.2,2.294-3.491,1.9-2.693-1.8-2.693-1.8-2.793.466-2.394-3.125a2.487,2.487,0,0,1,3.79-2.061,5.524,5.524,0,0,1,4.456-4.389c3.736-.644,4.023,1.1,4.023,1.1a2.341,2.341,0,0,1,2.792-.8c1.6.8,1.8,1.6,1.8,1.6A5.347,5.347,0,0,1,1202.609,2759.989Z"/>
        </g>
        <g id="Group_383" data-name="Group 383">
          <path id="Path_453" data-name="Path 453" d="M1200.814,2758.359s2.493,6.982,4.787,7.082c1.2,1.3,3.092.1,3.092.1a3.135,3.135,0,0,0-1.031-4.555c1.6-2.527-1.4-4.322-2.659-3.325C1205,2756.265,1201.113,2755.267,1200.814,2758.359Z"/>
        </g>
        <g id="Group_384" data-name="Group 384">
          <path id="Path_454" data-name="Path 454" d="M1191.637,2764.444l-1.995,7.581-.466,2.261-2.726-10.341Z"/>
        </g>
        <g id="Group_385" data-name="Group 385">
          <path id="Path_455" data-name="Path 455" d="M1208.793,2764.942l-2.46,9.609-.632-2.527-.8-8.578Z"/>
        </g>
        <g id="Group_386" data-name="Group 386">
          <path id="Path_456" data-name="Path 456" d="M1197.405,2780.4c-2.711,0-3.91-2.762-4.166-4.222l-.082-.468H1202l-.1.481c-.009.041-.9,4.1-4.368,4.207Zm-3.267-3.892c.275.97,1.125,3.094,3.267,3.094l.1,0c2.218-.069,3.158-2.129,3.476-3.092Z"/>
        </g>
      </g>
      <g id="Group_388" data-name="Group 388">
        <path id="Path_457" data-name="Path 457" d="M1192.236,2770.1a.8.8,0,1,0,.8-.8A.8.8,0,0,0,1192.236,2770.1Z"/>
      </g>
      <g id="Group_389" data-name="Group 389">
        <path id="Path_458" data-name="Path 458" d="M1201.478,2769.83a.8.8,0,1,0,.8-.8A.8.8,0,0,0,1201.478,2769.83Z"/>
      </g>
      <g id="Group_390" data-name="Group 390">
        <path id="Path_459" data-name="Path 459" d="M1197.944,2774.013a7.029,7.029,0,0,1-.972-.093l-.26-.036.09-.793c.082.009.178.023.286.039.271.039,1.1.159,1.257.02.385-.7-.015-2.507-.307-3.829a9.781,9.781,0,0,1-.343-2.172l.8.044a9.926,9.926,0,0,0,.326,1.956c.355,1.606.757,3.427.218,4.4A1.152,1.152,0,0,1,1197.944,2774.013Z"/>
      </g>
      <g id="Group_391" data-name="Group 391">
        <path id="Path_460" data-name="Path 460" d="M1157.729,2786.789a1.3,1.3,0,0,1-.147-.006l.083-.793c.1.01,2.415.193,2.856-3.245a69.322,69.322,0,0,0,.313-7.821,25.618,25.618,0,0,1,.09-3.078.959.959,0,0,0-.815-.041c-.358.1-1.529.577-1.586,2.525-.094,3.183-.454,3.4-.648,3.514l-.018.011a7.11,7.11,0,0,0-1.334,3.209l-.789-.125a7.6,7.6,0,0,1,1.595-3.7l.112-.124a11.316,11.316,0,0,0,.284-2.812,3.28,3.28,0,0,1,1.762-3.118,1.94,1.94,0,0,1,1.919.021.787.787,0,0,1,.3.793,28.1,28.1,0,0,0-.075,2.924,69.739,69.739,0,0,1-.32,7.921C1160.838,2786.549,1158.36,2786.789,1157.729,2786.789Z"/>
      </g>
      <g id="Group_395" data-name="Group 395">
        <g id="Group_392" data-name="Group 392">
          <circle id="Ellipse_34" data-name="Ellipse 34" cx="1.798" cy="1.798" r="1.798" transform="translate(1258.693 2747.45)"/>
        </g>
        <g id="Group_393" data-name="Group 393">
          <circle id="Ellipse_35" data-name="Ellipse 35" cx="1.798" cy="1.798" r="1.798" transform="translate(1252.461 2747.45)"/>
        </g>
        <g id="Group_394" data-name="Group 394">
          <circle id="Ellipse_36" data-name="Ellipse 36" cx="1.798" cy="1.798" r="1.798" transform="translate(1246.229 2747.45)"/>
        </g>
      </g>
      <g id="Group_399" data-name="Group 399">
        <g id="Group_396" data-name="Group 396">
          <circle id="Ellipse_37" data-name="Ellipse 37" cx="1.798" cy="1.798" r="1.798" transform="translate(1350.605 2642.225)"/>
        </g>
        <g id="Group_397" data-name="Group 397">
          <circle id="Ellipse_38" data-name="Ellipse 38" cx="1.798" cy="1.798" r="1.798" transform="translate(1344.373 2642.225)"/>
        </g>
        <g id="Group_398" data-name="Group 398">
          <circle id="Ellipse_39" data-name="Ellipse 39" cx="1.798" cy="1.798" r="1.798" transform="translate(1338.141 2642.225)"/>
        </g>
      </g>
      <g id="Group_400" data-name="Group 400">
        <circle id="Ellipse_40" data-name="Ellipse 40" cx="29.323" cy="29.323" r="29.323" transform="translate(1449.773 2656.449) rotate(-66.705)" fill="#eaf2ff"/>
        <path id="Path_461" data-name="Path 461" d="M1488.3,2671.234a30.12,30.12,0,1,1,30.12-30.121A30.155,30.155,0,0,1,1488.3,2671.234Zm0-58.645a28.524,28.524,0,1,0,28.525,28.524A28.557,28.557,0,0,0,1488.3,2612.589Z"/>
      </g>
      <g id="Group_404" data-name="Group 404">
        <g id="Group_401" data-name="Group 401">
          <path id="Path_462" data-name="Path 462" d="M1145.81,2676.09l2.456,20.176,3.8-10.46,53.367-10.351Z" fill="#fff"/>
          <path id="Path_463" data-name="Path 463" d="M1147.877,2699.674l-2.967-24.373,60.515-.644.16,1.582-52.924,10.264Zm-1.167-22.8,1.945,15.979,2.816-7.75,45.175-8.761Z"/>
        </g>
        <g id="Group_402" data-name="Group 402">
          <path id="Path_464" data-name="Path 464" d="M1148.626,2683.85l7.783,22.1,50.268-30.588Z" fill="#fff"/>
          <path id="Path_465" data-name="Path 465" d="M1155.984,2707.141l-8.432-23.94,62.891-9.2ZM1149.7,2684.5l7.134,20.255,46.077-28.038Z"/>
        </g>
        <g id="Group_403" data-name="Group 403">
          <path id="Path_466" data-name="Path 466" d="M1146.985,2681.4l-5.963-11.958,63.042,4.968Z" fill="#fff"/>
          <path id="Path_467" data-name="Path 467" d="M1146.522,2682.26l-6.843-13.725,72.356,5.7Zm-4.156-11.913,5.082,10.192,48.645-5.958Z"/>
        </g>
      </g>
      <g id="Group_406" data-name="Group 406">
        <g id="Group_405" data-name="Group 405">
          <path id="Path_468" data-name="Path 468" d="M1498.58,2637.54l-.273.158v-6.229h-25.682v20.218h25.682v-6.229l.273.158,6.994,4.038V2633.5Z" fill="#ec1846"/>
        </g>
      </g>
      <g id="Group_425" data-name="Group 425">
        <g id="Group_407" data-name="Group 407">
          <path id="Path_469" data-name="Path 469" d="M1426.6,2709.889s-11.479.377-13.452-1.086c-1.235-1.2-2.032-9.557-2.243-9.663l-3.926-.607,4.343-8.343s-2.152-10.784,5.763-16.252c10.234-7.07,22.021-6.532,28.891,3.363S1448.817,2707.6,1426.6,2709.889Z" fill="#ffb07b"/>
        </g>
        <g id="Group_408" data-name="Group 408">
          <path id="Path_470" data-name="Path 470" d="M1515.547,2951.424s-10.628-159.424-36.79-205.207c-24.527-21.257-63.769-21.529-91.294,11.173-8.175,94.786-9.894,195.635-9.894,195.635S1463.224,2960.417,1515.547,2951.424Z" fill="#ffd423"/>
        </g>
        <g id="Group_409" data-name="Group 409">
          <path id="Path_471" data-name="Path 471" d="M1466.494,2737.5s52.732,28.32,72.081,105.464c6.435,25.656-12.808,41.166-40.878,46.7C1476.986,2787.264,1466.494,2737.5,1466.494,2737.5Z" fill="#ffd423"/>
        </g>
        <g id="Group_410" data-name="Group 410">
          <path id="Path_472" data-name="Path 472" d="M1420.109,2703.32l2.214,33.273s12.531,4.2,23.659,1.985c9.189-2.317-4.521-41.039-4.521-41.039Z" fill="#ffb07b"/>
        </g>
        <g id="Group_411" data-name="Group 411">
          <path id="Path_473" data-name="Path 473" d="M1415.347,2681.354a6.592,6.592,0,0,1-7.111,3.053c-5-.934-5.79-4.248-3.72-7.418-1.354-.2-1.955-4.532.42-5.641,2.989-1.4,4.369-.053,4.369-.053s-1.68-4.586,4.4-6.19,8.338,2.4,8.338,2.4,2.695-2.047,8.813-1.6,10.061,6.1,10.061,6.1a4.322,4.322,0,0,1,4.117-.475c2.688.817,3.4,5.628,3.4,5.628s3.933.471,5.177,2.853a4.314,4.314,0,0,1,.2,4.1s2.293.525,1.918,2.552-2.43,2.2-2.729,2.728c1.435,1.3.407,2.749-.178,3.538,1.414,1.709,2.515,6.949-1.821,11.778.632,3.716-1.091,8.131-6.915,7.293-6.928,2.107-10.167,1.4-12.459-1.855-3.865.9-5.912-1.8-6.815-8.256-2.115-4.063-2.909-12.7-2.909-12.7s-6.7.209-6.455-7.283Z"/>
        </g>
        <g id="Group_412" data-name="Group 412">
          <path id="Path_474" data-name="Path 474" d="M1513.527,2938.6c-.1-1-10.412-100.773-20.715-148.253l1.56-.338c10.322,47.566,20.64,147.425,20.743,148.428Z"/>
        </g>
        <g id="Group_417" data-name="Group 417">
          <g id="Group_413" data-name="Group 413">
            <path id="Path_475" data-name="Path 475" d="M1258.233,2846.575s-3.32-15.493-13.754-20.394a153.56,153.56,0,0,1-21.816-12.331c-3.32-2.371-6.8-1.581-8.379.158,6.956,7.746,10.75,11.383,10.75,11.383S1240.685,2846.891,1258.233,2846.575Z" fill="#ffb07b"/>
          </g>
          <g id="Group_414" data-name="Group 414">
            <path id="Path_476" data-name="Path 476" d="M1188.681,2813.833a2.229,2.229,0,0,1,1.689-1.207l-1.417-.951a3.053,3.053,0,0,1-1.061-3.834l.026-.054a3.051,3.051,0,0,1,4.239-1.37l31.127,17.224.011-.029c16.718,8.893,44.226,24.307,44.226,24.307s-2.964,5.77-14.189,30.274c-15.974-7.783-38.574-27.35-38.574-27.35l-1.411-2.084-20.927-25.648a2.126,2.126,0,0,1,.051-2.748l.027-.03a2.084,2.084,0,0,1,.545-.433l-3.842-3.328a2.245,2.245,0,0,1-.539-2.7Z" fill="#ffb07b"/>
          </g>
          <g id="Group_415" data-name="Group 415">
            <path id="Path_477" data-name="Path 477" d="M1192,2813.72l-3.048-2.045a3.053,3.053,0,0,1-1.061-3.834l.026-.053a3.051,3.051,0,0,1,4.239-1.371l49.477,26.167Z" fill="#ffb07b"/>
            <path id="Path_478" data-name="Path 478" d="M1241.26,2833.289l-49.477-26.167a2.255,2.255,0,0,0-3.143,1,2.258,2.258,0,0,0,.757,2.885l3.049,2.045-.89,1.326-3.048-2.045a3.829,3.829,0,0,1-1.338-4.836,3.852,3.852,0,0,1,5.373-1.784l49.464,26.16Z"/>
          </g>
          <g id="Group_416" data-name="Group 416">
            <path id="Path_479" data-name="Path 479" d="M1223.3,2832.347l-31.426-19.419a2.244,2.244,0,0,0-3.188.905l-.019.038a2.245,2.245,0,0,0,.539,2.7l27.928,24.232Z" fill="#ffb07b"/>
            <path id="Path_480" data-name="Path 480" d="M1216.607,2841.407l-27.93-24.232a3.04,3.04,0,0,1-.728-3.66,3.042,3.042,0,0,1,4.339-1.266l31.426,19.419-.838,1.357-31.426-19.418a1.448,1.448,0,0,0-2.055.583,1.459,1.459,0,0,0,.328,1.779l27.929,24.233Z"/>
          </g>
        </g>
        <g id="Group_418" data-name="Group 418">
          <path id="Path_481" data-name="Path 481" d="M1418.586,2824.755s-42.308,81.718-78.405,90.7c-40.332,10.032-76.85-25.34-91.566-37.448,13.49-22.78,19.485-32.045,19.485-32.045s28.751,17.256,48.645,12.067c17.861-4.658,26.162-26.982,45.51-64.689s36.245-48.085,51.779-56.734C1426.566,2793.636,1418.586,2824.755,1418.586,2824.755Z" fill="#ffd423"/>
        </g>
        <g id="Group_419" data-name="Group 419">
          <path id="Path_482" data-name="Path 482" d="M1415.343,2823.908l-1.505-.527c3.632-10.374,6.782-21.054,9.362-31.744l1.551.375C1422.158,2802.753,1418.994,2813.484,1415.343,2823.908Z"/>
        </g>
        <g id="Group_420" data-name="Group 420">
          <rect id="Rectangle_68" data-name="Rectangle 68" width="14.323" height="1.596" transform="matrix(0.521, -0.854, 0.854, 0.521, 1420.11, 2819.276)"/>
        </g>
        <g id="Group_421" data-name="Group 421">
          <path id="Path_483" data-name="Path 483" d="M1359.906,2905.535l-1-1.242c29.881-24.106,58.686-79.35,58.974-79.905l1.416.734C1419.006,2825.68,1390.049,2881.218,1359.906,2905.535Z"/>
        </g>
        <g id="Group_422" data-name="Group 422">
          <path id="Path_484" data-name="Path 484" d="M1423.371,2710.73c-5.949,0-9.547-.432-10.7-1.286l-.081-.069c-.888-.863-1.434-3.55-2.13-8.205-.069-.468-.146-.975-.2-1.323l-4.5-.695,4.732-9.09c-.3-1.821-1.476-11.517,6.143-16.781,11.129-7.688,23.183-6.254,30,3.565l-1.311.91c-6.275-9.038-17.438-10.308-27.781-3.162-7.4,5.112-5.455,15.338-5.435,15.44l.056.275-3.959,7.6,3.064.513c.432.218.445.3.775,2.507.267,1.787.969,6.484,1.63,7.26.754.484,3.878.976,10.408.939l.009,1.6Z"/>
        </g>
        <g id="Group_423" data-name="Group 423">
          <path id="Path_485" data-name="Path 485" d="M1434.285,2668.323c.109.551-9.656-.623-11.475,19.273a51.082,51.082,0,0,1-5.444-.274s-.919-19.692,10.2-21.043C1428.886,2666.381,1434.176,2667.771,1434.285,2668.323Z" fill="#fff"/>
          <path id="Path_486" data-name="Path 486" d="M1423.9,2688.811l-1.11-.018a51.89,51.89,0,0,1-5.593-.286l-.981-.139-.046-.99c-.04-.849-.833-20.819,11.251-22.287l.117-.014.118.009c.073.005,7.424,1.09,7.8,3,.16.815-.327,1.354-1.447,1.6-5.665,1.262-9.032,7.322-10.01,18.011Zm-5.355-2.58c.676.05,1.713.108,3.184.146,1.058-9.618,4.143-15.7,9.189-18.132a27.31,27.31,0,0,0-3.333-.761C1419.177,2668.638,1418.552,2682.322,1418.546,2686.231Z"/>
        </g>
        <g id="Group_424" data-name="Group 424">
          <path id="Path_487" data-name="Path 487" d="M1420.8,2684.084c-3.678.165-6.622,4.17-5.617,11.315.923,6.566,5.393,9.412,8.843,8.63,3.649-.826,5.662-5.64,4.923-11.076C1428.057,2686.359,1423.675,2683.956,1420.8,2684.084Z" fill="#fff"/>
          <path id="Path_488" data-name="Path 488" d="M1422.887,2705.353h0c-3.616,0-7.938-3.064-8.884-9.788-.607-4.307.118-7.954,2.04-10.268a6.466,6.466,0,0,1,4.708-2.408c3.753-.167,8.441,2.926,9.389,9.9.846,6.229-1.612,11.446-5.845,12.405A6.391,6.391,0,0,1,1422.887,2705.353Zm-1.864-20.076-.166,0a4.049,4.049,0,0,0-2.973,1.547c-1.486,1.788-2.023,4.773-1.512,8.405.747,5.308,3.9,7.726,6.514,7.727h0a3.98,3.98,0,0,0,.878-.1c2.946-.667,4.667-4.858,4-9.748C1426.925,2686.915,1422.987,2685.277,1421.023,2685.277Z"/>
        </g>
      </g>
    </g>
  </g>
</svg>
