<svg xmlns="http://www.w3.org/2000/svg" width="555.644" height="482.629" viewBox="0 0 555.644 482.629"><g transform="translate(-163.119 -1958.371)"><path d="M166.955,2409.547c9.1,12.914,32.083,21.116,43.908,23.524,37.057,7.549,79.923-.4,117.332-2.554,47.242-2.715,94.519-5.007,141.849-4.815,44.81.186,87.3,6.6,131.573,12.366,28.006,3.648,57.824,5.411,84.948-4.018,13.783-4.791,31.917-18.016,30.959-34.354-2.1-35.6-60.067-27.655-81.523-25.1-82.789,9.87-166.537-.2-249.625,2-28.421.754-57.32.631-85.878-1.114-27.013-1.65-53.58-4.489-80.848-4.508-17.636-.012-44.2-.645-53.977,17.842C161.526,2396.659,162.77,2403.6,166.955,2409.547Z" fill="#eceff1" style="mix-blend-mode:multiply;isolation:isolate"/><path d="M580.789,2286.169l-22.976,5.722-5.976-9.965L419.053,2053.419l-81.16,236.732L223.5,2254.818l90.975,150.456s96.032,5.645,147.8,5.661c55.033.016,135.722-5.661,135.722-5.661l120.763-155.537Z" fill="#ffce26"/><path d="M483.9,2140.309l-.22,35.064s36.595-9.668,55.694-20.565a356.066,356.066,0,0,0,33.985-22.125s-10.589-33.62-12.761-52.552c-1.7-14.889-2.443-13.343-2.443-13.343a53.394,53.394,0,0,0,32.019,6.8c18-2.12,27.3-11.853,31.062-26.115a122.21,122.21,0,0,0,3.457-35.131c-.392-5.7-.545-7.213-.545-7.213l-23.512-2.355s3.763,36.774-12.928,38.966c0,0-6.171,3.473-21.962-7.092s-33.8-20.51-39.3-22.306l9.025,94.108-31.56-92.6-9.9,7.807s-25.6,6.995-39.724,25.361-18.545,41.39-17.678,57.717,8.564,44.5,29.146,63.369l17.537-27.426s-17.547-22.665-20.106-38.259,5.3-22.537,12.364-24.606Z" fill="#2a0048"/><path d="M536.807,1988.9l-3.118.141a7.928,7.928,0,0,1-.91-3.245,2.4,2.4,0,0,1,.822-2.016l2.967-.14-.088-1.925-2.121-8.6s-3.944-4.283-11.781-3.556a62.582,62.582,0,0,0-12.162,2.12,39.416,39.416,0,0,0-1.513,14.053s-3.675-5.085-7.816-2.844-4.671,9.565,2.364,12.468l.16,18.034,2.452,6.652s7.745,2.656,12.947,2.169a9.7,9.7,0,0,0,7.357-4.232l-.255-5.612s6.774.74,10.215-4.255S536.807,1988.9,536.807,1988.9Z" fill="#fff"/><path d="M473.408,2156.183l9.582-14.92s7.118-2.413,9.315-2.2,3.93.174,5.682,3.944a33.64,33.64,0,0,1,2.39,7.55s5.556,4.849,4.983,5.923-4.958.035-8-.879-6.2,1.519-11.081,2.12S476.2,2158.656,473.408,2156.183Z" fill="#fff"/><path d="M602.849,2258.574l1.487,10.809,5.429-.8.851-2.462,2.687,2.053,37.69-2.487-20.466-9.211Z" fill="#3a3a3a"/><path d="M525.07,1960.272c-7.534-2.3-17.132-1.7-22.391,5.366a8.319,8.319,0,0,0-6.091,7.981,18.72,18.72,0,0,0,2.789,10.724s3.281-4.253,6.937-1.037l1.306.682s-1.5-7.782.569-11.375a25.63,25.63,0,0,1,12.486-3.29,32.193,32.193,0,0,1,13.42,3.134l2.037,5.116s-.1-3.552-.552-6.879C534.946,1966.038,532.6,1962.571,525.07,1960.272Z" fill="#fff"/><path d="M488.155,2174.1l-7.262,126.325,44.553-10.673,18.971-108.128s22.512-6,33.7-5.287,14.38,5.927,15.2,12.345c.5,3.932.23,70.141.23,70.141l45.381-3.128L636.274,2173s3.009-20.876-16.665-29.867c-20.591-9.412-45.543-11.1-45.543-11.1s-18.2,17.085-47.606,28.131S488.155,2174.1,488.155,2174.1Z" fill="#fff"/><path d="M631.922,1987.127c-.033-3.747.475-4.234.475-4.234l-59.919.093-.621,1.907-38.769.617c-1.309,1.937.649,5.475.649,5.475l37.929.564,1.091,2.023,61.722-.343A8.377,8.377,0,0,1,631.922,1987.127Z" fill="#ed1846"/><path d="M621.414,1981.364s.367-3.636-8-4.048-10.283.359-11.415.99-4.751,1.216-4.464,7.39l-1.668,5.888s2.75,8.837,8.2,11.29l15.521,1.3,2.114-12.631-18.848-.12,1.181-3.859a3.367,3.367,0,0,0,3.572,2.121c2.873-.144,3.495-4.16,3.495-4.16s.772,4.362,4.508,4.16,3.674-2.286,3.674-2.286-2.535-3.737-.1-5.765Z" fill="#fff"/><path d="M636.71,1987.234c0,2.956-.823,5.357-1.842,5.357s-1.849-2.4-1.849-5.357.826-5.36,1.849-5.36S636.71,1984.273,636.71,1987.234Z" fill="#fff"/><path d="M624.5,2259.906c.044,0,10.523-.921,10.523-.921-.088-1-10.568-.079-10.568-.079C624.022,2259.708,624.242,2259.906,624.5,2259.906Z" fill="#fff"/><path d="M629.07,2262.019c.044,0,10.527-.923,10.527-.923-.088-1-10.571-.077-10.571-.077C628.594,2261.822,628.815,2262.019,629.07,2262.019Z" fill="#fff"/><path d="M514.369,2035.852l3.035,4.687,3.471,23.73,11.213,32.261-4.38-42.019-4.807-15.435.4-6.274-6.266-7.086Z" fill="#ed1846"/><path d="M458.935,2007.345H290.327l25.261-2.636s-2.139-11.3,12.594-14.308,17.5,8.471,17.5,8.471-7.71-17.886,25.152-19.016,29.637,18.452,29.637,18.452-1.513-4.191,9.143-4.731,11.575,8.5,11.575,8.5Z" fill="#fff"/><path d="M312.1,2098.343H242.8l22.962-5.134s.225-6.833,13.16-7.188,11.886,8.62,11.886,8.62Z" fill="#fff"/><path d="M566.776,2110.484l17.249-2.083s-5.586-14.508,13.975-17.679,25.152,14.424,25.152,14.424.7-4.905,13.273-4.905,16.069,9.977,16.069,9.977l42.152,4.986-126.072.35Z" fill="#fff"/><path d="M297.693,2173.271c.891-.552.891-1.065.573-1.383l-8.345-8.343a.811.811,0,0,0-1.146,1.149l8.345,8.342A.815.815,0,0,0,297.693,2173.271Z" fill="#1a1a1a"/><path d="M289.348,2173.271c.573-.235,8.918-8.577,8.918-8.577a.811.811,0,0,0-1.146-1.149l-8.345,8.343a.809.809,0,0,0,.573,1.383Z" fill="#1a1a1a"/><path d="M304.4,2156.573a3.2,3.2,0,1,1,3.2,3.193A3.2,3.2,0,0,1,304.4,2156.573Zm1.624,0A1.572,1.572,0,1,0,307.6,2155,1.574,1.574,0,0,0,306.022,2156.573Z" fill="#1a1a1a"/><path d="M676.781,2022.117a3.2,3.2,0,1,1,3.192,3.194A3.2,3.2,0,0,1,676.781,2022.117Zm1.622,0a1.573,1.573,0,1,0,1.57-1.571A1.573,1.573,0,0,0,678.4,2022.117Z" fill="#1a1a1a"/><path d="M638.07,2221.555h36.646a.81.81,0,1,0,0-1.62H638.07a.81.81,0,1,0,0,1.62Z" fill="#1a1a1a"/><path d="M441.01,2418.64c53.028,0,130.053-5.619,130.826-5.675,1.146-1.139,121.357-166.483,121.357-166.483-.861-1.26-54.211,12.937-54.211,12.937a.81.81,0,0,0,.415,1.566l51.144-13.61-119.213,164c-6.014.432-79.3,5.645-130.318,5.645-62.675,0-145.623-5.22-152.289-5.647L199,2262.985l213.7,55.487c.4,0,200.819-49.509,200.819-49.509a.807.807,0,0,0,.591-.979.789.789,0,0,0-.979-.591l-200.224,49.459-215.431-55.935c-.9,1.2,90.08,151.658,90.08,151.658C289.065,2413.021,375.943,2418.64,441.01,2418.64Z" fill="#1a1a1a"/><path d="M313.439,2292.673c.768-.548,79.575-230.433,79.575-230.433l91.809,158a.811.811,0,0,0,1.4-.812l-92.7-159.532c-1.469.143-80.853,231.706-80.853,231.706a.813.813,0,0,0,.767,1.072Z" fill="#1a1a1a"/><path d="M431.746,2313.806a.831.831,0,0,0,.8-.942l-27.431-164.97,66.915,155.2a.811.811,0,0,0,1.491-.64l-69.551-161.307a.811.811,0,0,0-1.546.452l28.526,171.532A.812.812,0,0,0,431.746,2313.806Z" fill="#1a1a1a"/><path d="M436.2,2418.64c.617-.121.891-.557.789-.991l-23.294-100.142a.826.826,0,0,0-.974-.608.813.813,0,0,0-.606.974l23.294,100.14A.81.81,0,0,0,436.2,2418.64Z" fill="#1a1a1a"/><path d="M219.587,2221.555H337.819a.81.81,0,1,0,0-1.62H219.587a.81.81,0,1,0,0,1.62Z" fill="#1a1a1a"/><path d="M537.257,2221.555h56.585a.81.81,0,0,0,0-1.62H537.257a.81.81,0,1,0,0,1.62Z" fill="#1a1a1a"/><path d="M597.348,1988.352a.816.816,0,0,0,.807-.861c-.186-3.018.436-5.32,1.852-6.839,1.5-1.606,3.855-2.4,7.222-2.432.329,0,.763-.018,1.269-.035,3.485-.113,11.638-.389,12.176,3.009a.785.785,0,0,0,.926.676.809.809,0,0,0,.67-.926c-.758-4.821-9.586-4.531-13.823-4.378-.492.016-.91.033-1.237.035-3.828.035-6.577,1-8.389,2.949-1.729,1.856-2.5,4.561-2.281,8.041A.814.814,0,0,0,597.348,1988.352Z" fill="#1a1a1a"/><path d="M615.217,1990.491c4.362,0,4.564-3.013,4.564-3.044-.221-.619-2.121-3.487.209-5.466a.81.81,0,0,0-1.051-1.234c-2.581,2.2-1.745,5.259-.82,6.819-.155.443-.793,1.42-3.25,1.3a2.929,2.929,0,0,1-2.176-.872,3.382,3.382,0,0,1-.671-2.288.811.811,0,0,0-1.6-.225c-.021.139-.652,3.385-3.2,3.385a2.414,2.414,0,0,1-2.677-1.951.827.827,0,0,0-.91-.694.8.8,0,0,0-.7.9,4.02,4.02,0,0,0,4.26,3.368,4.441,4.441,0,0,0,3.782-2.153,4.7,4.7,0,0,0,3.823,2.153C614.943,1990.491,615.08,1990.491,615.217,1990.491Z" fill="#1a1a1a"/><path d="M604.357,2270.193c.141-.014,5.54-.979,5.54-.979a4.69,4.69,0,0,0,.974-1.891l1.959,1.5c.547.165,38.244-2.323,38.244-2.323.276-1.545-20.194-10.758-20.194-10.758a.81.81,0,0,0-.662,1.478l17.508,7.879-34.149,2.253-2.691-2.06c-1.281.445-1.787,2.42-1.787,2.42l-4.058.726-1.39-9.977a.829.829,0,0,0-.914-.689.807.807,0,0,0-.691.914l1.508,10.81C604.023,2270.14,604.19,2270.193,604.357,2270.193Z" fill="#1a1a1a"/><path d="M526.749,2013.136c3.617,0,6.376-.882,8.35-2.655,4.5-4.046,3.817-11.849,3.216-18.732-.069-.8-.137-1.585-.2-2.353a.8.8,0,0,0-.87-.745.809.809,0,0,0-.745.868q.094,1.162.2,2.369c.571,6.508,1.214,13.884-2.684,17.387-2.564,2.3-6.842,2.826-13.081,1.6a.808.808,0,0,0-.306,1.587A31.917,31.917,0,0,0,526.749,2013.136Z" fill="#1a1a1a"/><path d="M536.568,1984.452a.812.812,0,0,0,.812-.81,32.061,32.061,0,0,0-2.276-10.969.808.808,0,1,0-1.489.626,31.058,31.058,0,0,1,2.143,10.343A.811.811,0,0,0,536.568,1984.452Z" fill="#1a1a1a"/><path d="M503.328,1996.166a5.445,5.445,0,0,0,3.768-1.559.809.809,0,1,0-1.111-1.176,3.864,3.864,0,0,1-2.662,1.118,4.065,4.065,0,0,1-3.148-1.636,6.467,6.467,0,0,1-1.35-4.122c.016-3.153,2.041-5.708,4.517-5.708a5.931,5.931,0,0,1,4.949,3.081.807.807,0,1,0,1.489-.624,7.485,7.485,0,0,0-6.413-4.076c-3.387,0-6.139,3.273-6.166,7.317a8.141,8.141,0,0,0,1.712,5.149,5.631,5.631,0,0,0,4.376,2.236Z" fill="#1a1a1a"/><path d="M502.727,1992.844c.5-.176,4.36-3.241,4.36-3.241.044-1.235-4.058-4.968-4.058-4.968a.812.812,0,0,0-1.1,1.2l3.4,3.092-3.109,2.474a.808.808,0,0,0-.132,1.139A.817.817,0,0,0,502.727,1992.844Z" fill="#1a1a1a"/><path d="M530.87,1994.677c1.253-.914,1.508-2.1-.283-10.977-.128-1.338-.45-1.654-.9-1.7-.417-.109-.842.362-.891.805a4.826,4.826,0,0,0,.2,1.213c1.16,5.747,1.4,8.026,1.39,8.917a12.252,12.252,0,0,1-2.36-1.221.811.811,0,0,0-.891,1.355,10.077,10.077,0,0,0,3.705,1.606Z" fill="#1a1a1a"/><path d="M526.367,1999.2c.137-.009,4.264-.487,6.832-.514a.81.81,0,0,0-.009-1.62c-2.664.03-6.745.5-6.916.52a.81.81,0,0,0,.093,1.614Z" fill="#1a1a1a"/><path d="M520.893,1988.563a.885.885,0,0,0,.833-.928l-.127-2.475a.882.882,0,0,0-1.761.09l.127,2.476A.889.889,0,0,0,520.893,1988.563Z" fill="#1a1a1a"/><path d="M499.368,1985.287c.749-.267.921-.749.73-1.155-2.818-5.972-3.443-10.793-1.807-13.948a7.118,7.118,0,0,1,4.675-3.576c4.313-7.178,15.389-7.717,24.7-5.255,5.183,1.374,8.371,3.608,9.482,6.647,1.594,4.362-1.649,9.058-1.679,9.107a.809.809,0,1,0,1.322.932c.156-.22,3.759-5.422,1.884-10.584-1.3-3.568-4.865-6.151-10.593-7.668-9.084-2.4-21.2-2.418-25.789,5.313a8.75,8.75,0,0,0-5.442,4.339c-1.9,3.67-1.306,8.846,1.781,15.387A.81.81,0,0,0,499.368,1985.287Z" fill="#1a1a1a"/><path d="M508.873,1985.911a.824.824,0,0,0,.807-.883c-.009-.072-.631-7.149,1.353-12.682,2.6-.743,17.777-4.745,22.7,1.157a.81.81,0,1,0,1.244-1.037c-6.069-7.266-24.043-1.793-24.8-1.559-2.812,6.425-2.144,13.953-2.114,14.271A.812.812,0,0,0,508.873,1985.911Z" fill="#1a1a1a"/><path d="M534.942,2108.278s-38.47-54.223-38.583-54.921l3.113-10.5-9.434-2.514a.809.809,0,0,1-.582-.954s3.917-17.9,4.19-18.354c0,0,9.448-7.807,10.73-7.443,0,0,31.994,93.964,31.227,95.033A.814.814,0,0,1,534.942,2108.278ZM494.894,2022.1l-3.691,16.874s9.492,2.527,10.06,3.538l-3.241,10.928,35.017,49.36-29.818-87.579Z" fill="#1a1a1a"/><path d="M534.8,2107.891s-9.457-95.02-8.311-95.832c0,0,10.477,4.87,10.8,5.137l11.614,16.549a.808.808,0,0,1-.188,1.123l-6.524,4.647s5.7,9.294,5.8,9.874c0,0-11.594,58.578-12.387,59.232A6.891,6.891,0,0,1,534.8,2107.891Zm5.609-68.174a.818.818,0,0,1,.221-1.084l6.485-4.617-11.028-15.709-8.988-4.183,8.772,88.175,10.473-52.912Z" fill="#1a1a1a"/><path d="M483.387,2176.183a372.891,372.891,0,0,0,52.587-19.007c23.937-11.043,38.212-24.419,38.353-24.551.1-1.1-7.918-18.264-12.978-51.232-.044-.272-4.524-25.519-6.97-35.98a.809.809,0,1,0-1.577.366c2.434,10.422,6.907,35.623,6.951,35.878,4.591,29.939,11.637,46.982,13.039,50.177-2.515,2.26-16.092,14-37.5,23.874-22.161,10.224-45.842,17.12-51.065,18.591l.515-16.2a.811.811,0,0,0-.784-.835.831.831,0,0,0-.838.782l-.547,17.3C483.029,2176.125,483.206,2176.183,483.387,2176.183Z" fill="#1a1a1a"/><path d="M464.9,2168.7c-.355-.329-35.284-33.263-28.677-80.361,6.286-44.8,34.125-59.585,57.678-67.45a.808.808,0,1,1,.511,1.534c-23.109,7.723-50.421,22.217-56.583,66.141-5.972,42.553,22.612,73.368,27.477,78.266l16.712-26.013c-3.2-3.977-24.072-30.864-19.531-49.692,1.529-6.345,5.816-11.074,13.858-13.422l8.466,63c.056.443-.253.851-1.281.761,0,0-17.4,27.082-18.08,27.453A.806.806,0,0,1,464.9,2168.7Zm-.84-77.2c-4.2,17.392,15.161,43.138,18.951,47.954L474.891,2079C469.037,2081.778,465.4,2085.98,464.065,2091.5Z" fill="#1a1a1a"/><path d="M584.246,2043.109c.68,0,1.374-.033,2.074-.1,18.09-1.726,14.967-38.73,14.826-40.305a.8.8,0,0,0-.877-.733.813.813,0,0,0-.738.879c.035.367,3.132,36.973-13.362,38.544-8.556.814-15.442-4.009-24.166-10.12-6.842-4.8-14.6-10.234-25.085-14.366a.81.81,0,1,0-.591,1.508c10.3,4.062,17.978,9.44,24.746,14.185C569.374,2038.418,576.065,2043.109,584.246,2043.109Z" fill="#1a1a1a"/><path d="M584.568,2074.671a52.053,52.053,0,0,0,17.782-3.155c28.852-10.5,22.584-64.2,22.3-66.485-.721-.7-24.233-3.06-24.233-3.06a.8.8,0,0,0-.886.724.812.812,0,0,0,.728.886l22.858,2.29c.626,6.169,4.684,54.662-21.324,64.123-9.654,3.51-24.871,5.763-42.565-3.476-1.085-.57-1.38-.733-1.835-.405C568.019,2072.938,576.873,2074.671,584.568,2074.671Z" fill="#1a1a1a"/><path d="M525.021,2290.559c.979-1.7,18.315-99.855,19.8-108.226,2.1-.336,4.745-.935,7.768-1.617,13.93-3.151,34.964-7.9,39.295,4.564a25.311,25.311,0,0,1,.91,8.34l-.005,21.2q0,22.081-.053,44.165c.87.807,46.219-2.417,46.219-2.417a.816.816,0,0,0,.754-.82c-.014-.682-1-68.419-3.232-92-2.269-24.015-37.133-28.929-62.587-32.518a.811.811,0,1,0-.23,1.6c24.925,3.511,59.058,8.323,61.2,31.064,2.1,22.164,3.1,83.531,3.216,91.106l-43.718,3.111q.074-21.649.049-43.3l.009-21.2a26.759,26.759,0,0,0-1.007-8.875c-4.8-13.83-26.686-8.888-41.179-5.612-3.279.74-6.107,1.378-8.223,1.682-.617.262-.617.262-19.783,108.792a.814.814,0,0,0,.656.939A.907.907,0,0,0,525.021,2290.559Z" fill="#1a1a1a"/><path d="M480.577,2301.633a.8.8,0,0,0,.8-.764l7.287-126.726a.808.808,0,0,0-.758-.856.755.755,0,0,0-.854.763l-7.287,126.729a.806.806,0,0,0,.758.854Z" fill="#1a1a1a"/><path d="M569.571,1990.51c.014-1.214-35.441-1.928-35.441-1.928-.119-.033-.534-.457-.534-1.981,0-1.752.666-2,.671-2l35.01-.689c-.028-1.214-35.173-.506-35.173-.506-.269.044-1.726.413-1.726,3.193,0,3.106,1.561,3.194,1.738,3.194l35.442.715Z" fill="#1a1a1a"/><path d="M619.465,1981.97h13.266c0-1.212-13.266-1.212-13.266-1.212C618.855,1981.7,619.128,1981.97,619.465,1981.97Z" fill="#1a1a1a"/><path d="M570.075,1992.243h25.746c0-1.211-25.329-1.211-25.329-1.211a14.5,14.5,0,0,1-.621-4.531,13.118,13.118,0,0,1,.591-4.531h27.923c0-1.212-28.31-1.212-28.31-1.212-.6.418-1.42,1.792-1.42,5.743a13.408,13.408,0,0,0,.873,5.4A.6.6,0,0,0,570.075,1992.243Z" fill="#1a1a1a"/><path d="M602.649,1992.243h30.082c0-1.211-30.082-1.211-30.082-1.211C602.041,1991.972,602.315,1992.243,602.649,1992.243Z" fill="#1a1a1a"/><path d="M630.377,1986.5c0-2.766.737-5.743,2.354-5.743s2.358,2.977,2.358,5.743-.738,5.742-2.358,5.742S630.377,1989.266,630.377,1986.5Zm1.218,0c0,2.972.847,4.531,1.136,4.531s1.14-1.559,1.14-4.531-.847-4.531-1.14-4.531S631.595,1983.526,631.595,1986.5Z" fill="#1a1a1a"/><path d="M544.115,2182.431a.807.807,0,0,0,.8-.708l2-15.939a.815.815,0,0,0-.7-.905.78.78,0,0,0-.9.7l-2,15.939a.81.81,0,0,0,.7.9A.907.907,0,0,0,544.115,2182.431Z" fill="#1a1a1a"/><path d="M503.611,2014.657a.813.813,0,0,0,.81-.821l-.316-18.491a.812.812,0,0,0-1.624.025l.318,18.492A.81.81,0,0,0,503.611,2014.657Z" fill="#1a1a1a"/><path d="M516.861,2023.052c7.963-.585,10.334-4.645,10.431-4.817.1-.469-.373-5.937-.373-5.937a.793.793,0,0,0-.879-.736.809.809,0,0,0-.736.877l.455,5.191c-.527.74-2.749,3.354-8.153,3.777a31.553,31.553,0,0,1-11.443-2.214.809.809,0,1,0-.775,1.42C507.223,2021.615,513.2,2023.052,516.861,2023.052Z" fill="#1a1a1a"/><path d="M603.28,2003.586c.921-.856.759-1.341.358-1.536-4.068-1.986-6.5-9.034-6.938-10.408.926-2.833,2.729-7.4,3.912-8.327a4.5,4.5,0,0,1,2.258,4.32c-.564,1.926-1.177,3.738-1.177,3.745a.809.809,0,1,0,1.534.517s.622-1.846,1.2-3.809c.517-1.761-.71-5-2.3-6.077a2.023,2.023,0,0,0-2.506.031c-2.007,1.57-4.283,8.556-4.538,9.35.1.846,2.717,9.607,7.847,12.113A.835.835,0,0,0,603.28,2003.586Z" fill="#1a1a1a"/><path d="M619.569,2005.226c.8-.689,2.648-13.155,2.648-13.155a.813.813,0,0,0-.685-.919.822.822,0,0,0-.921.683l-1.844,12.463a.817.817,0,0,0,.684.921A.678.678,0,0,0,619.569,2005.226Z" fill="#1a1a1a"/><path d="M518.555,1983.083h4.023a.81.81,0,1,0,0-1.619h-4.023a.81.81,0,1,0,0,1.619Z" fill="#1a1a1a"/><path d="M531.828,1983.083h4.023a.81.81,0,1,0,0-1.619h-4.023a.81.81,0,1,0,0,1.619Z" fill="#1a1a1a"/><path d="M480.691,2159.121a40.629,40.629,0,0,0,10.886-2.007,18.473,18.473,0,0,1,3.582-.84,19.506,19.506,0,0,1,3.838.851c2.818.8,5.236,1.483,6.426.371a1.52,1.52,0,0,0,.473-1.19c-.067-1.87-3.4-4.816-4.721-5.907-.494-1.73-2.854-9.561-5.721-11.454-3.128-2.077-12.032,1.183-13.044,1.561a.811.811,0,0,0,.575,1.516c3.492-1.311,9.721-2.942,11.578-1.727,2.153,1.423,4.429,8.267,5.122,10.784,2.62,2.327,4.68,4.659,4.592,5.3-.478.417-3.207-.35-4.835-.817a19.835,19.835,0,0,0-4.23-.909,17.86,17.86,0,0,0-4.081.9c-4.547,1.311-12.16,3.5-16.714.248a.8.8,0,0,0-1.127.19.809.809,0,0,0,.185,1.128A12.21,12.21,0,0,0,480.691,2159.121Z" fill="#1a1a1a"/><path d="M536.962,2221.555h56.583a.81.81,0,1,0,0-1.62H536.962a.81.81,0,1,0,0,1.62Z" fill="#1a1a1a"/><path d="M512.926,2041.167c.583-.429,5.884-17.7,5.884-17.7l8.981,12.42c.989-.71-8.712-14.121-8.712-14.121-1.076.177-6.735,18.619-6.735,18.619C512.808,2041.16,512.868,2041.167,512.926,2041.167Z" fill="#1a1a1a"/><path d="M280.049,2246.813h26.117a.809.809,0,1,0,0-1.619H280.049a.809.809,0,1,0,0,1.619Z" fill="#1a1a1a"/><path d="M647.16,2365.558h56.826a.809.809,0,1,0,0-1.617H647.16a.809.809,0,1,0,0,1.617Z" fill="#1a1a1a"/><path d="M682.249,2381.154h19.009a.81.81,0,1,0,0-1.619H682.249a.81.81,0,1,0,0,1.619Z" fill="#1a1a1a"/><path d="M209.761,2432.328h48.247a.809.809,0,1,0,0-1.619H209.761a.809.809,0,1,0,0,1.619Z" fill="#1a1a1a"/><path d="M554.6,2439.637h48.247a.81.81,0,1,0,0-1.62H554.6a.81.81,0,1,0,0,1.62Z" fill="#1a1a1a"/><path d="M173.788,2352.491H201.97a.809.809,0,1,0,0-1.619H173.788a.809.809,0,1,0,0,1.619Z" fill="#1a1a1a"/><path d="M197.272,2366.7h12.489a.81.81,0,0,0,0-1.62H197.272a.81.81,0,1,0,0,1.62Z" fill="#1a1a1a"/><path d="M524.849,2076.838c.6-.7-4.9-37.852-4.9-37.852-.088-.241-4.139-6.5-4.139-6.5-1.023.661,2.956,6.809,2.956,6.809l5.477,37.027A.61.61,0,0,0,524.849,2076.838Z" fill="#1a1a1a"/><path d="M530.385,2055.988c.578-.787-4.923-18.447-4.923-18.447l.4-6.16c-1.209-.082-1.613,6.192-1.613,6.192.025.22,5.561,17.99,5.561,17.99A.6.6,0,0,0,530.385,2055.988Z" fill="#1a1a1a"/><path d="M519.353,2039.682c.155-.021,5.649-1.483,5.649-1.483-.308-1.174-5.8.288-5.8.288C518.838,2039.5,519.084,2039.682,519.353,2039.682Z" fill="#1a1a1a"/><path d="M500.263,2151.611c.921-.764.807-1.263.427-1.5a9.523,9.523,0,0,0-2.8-1.077,13.743,13.743,0,0,0-4.62.369.813.813,0,0,0-.6.975.8.8,0,0,0,.979.6,12.11,12.11,0,0,1,3.907-.36,7.951,7.951,0,0,1,2.276.868A.822.822,0,0,0,500.263,2151.611Z" fill="#1a1a1a"/><path d="M284.645,2002.625a.812.812,0,0,1,.724-.847l24.458-2.552c-.153-2.835.415-11.742,13.317-14.382a24.411,24.411,0,0,1,4.822-.52c5.849,0,9.289,2.543,11.257,5.042a11.664,11.664,0,0,1,2.257-6.619c3.8-5.188,12.03-8.035,24.452-8.462.93-.032,1.828-.048,2.7-.048,10.816,0,18.667,2.371,23.328,7.048a15.247,15.247,0,0,1,4.39,8.826c1.624-1.2,4.415-1.9,9.294-2.128,8.782,0,10.9,6.515,11.359,8.608l37.162,5.19a.81.81,0,0,1-.11,1.612H285.452A.81.81,0,0,1,284.645,2002.625Zm130.86-5.231c-.03-.33-1.014-8.327-10.728-7.768-6.311.32-7.9,1.93-8.287,2.731-.014.83-.1,1.322-1.659,1.466a2.858,2.858,0,0,1,.039-1.78,13.7,13.7,0,0,0-4.053-9.616c-4.35-4.36-11.811-6.571-22.182-6.571-.856,0-1.738.016-2.652.047-11.9.41-19.7,3.034-23.2,7.8-2.58,3.52-2.064,7.28-1.19,10.215a.817.817,0,0,1-.533.956c-.4.133-.836-.065-1.337-1.445-.889-2.251-3.807-7.487-11.76-7.487a22.621,22.621,0,0,0-4.494.487c-13.742,2.812-12.039,12.939-12.675,14.322l-9.777,1.021H442.4S416.2,1998.115,415.505,1997.394Z" fill="#1a1a1a"/><path d="M237.118,2093.668a.811.811,0,0,1,.631-.877l22.419-5.011c.394-1.849,2.51-7.016,13.855-7.329,5.035-.112,8.527,1.027,10.675,3.443a8.339,8.339,0,0,1,2.065,5.308l20.6,3.58a.81.81,0,0,1-.137,1.608h-69.3A.812.812,0,0,1,237.118,2093.668Zm48.677-2.99a.81.81,0,0,1-.665-.893,6.757,6.757,0,0,0-1.64-4.817c-1.72-1.928-4.646-2.91-9.422-2.9-11.919.329-12.36,6.167-13,7.171l-15.807,3.534h52.58Z" fill="#1a1a1a"/><path d="M567.476,2113.09H688.959a.809.809,0,0,0,.1-1.612l-41.685-4.935c-.93-2.061-5.257-10.035-16.633-10.035-8.393,0-11.795,2.2-13.166,3.84-2.021-4.4-9-16.023-25.384-13.348-6.851,1.109-11.492,3.713-13.8,7.731a13.537,13.537,0,0,0-1.1,10.076l-11.719,1.6a.816.816,0,0,0-.694.914.773.773,0,0,0,.914.691l12.663-1.728c.627-1.142-1.262-6.23,1.351-10.763,2.055-3.564,6.308-5.9,12.642-6.923,18.663-3,24.2,13.7,24.252,13.872,1.578-.156,2.513-4.342,14.043-4.342,11.822,0,15.169,9.049,15.306,9.434.666.536,29.184,3.912,29.184,3.912H567.476a.809.809,0,1,0,0,1.617Z" fill="#1a1a1a"/></g></svg>