<svg xmlns="http://www.w3.org/2000/svg" width="588.03" height="497.383" viewBox="0 0 588.03 497.383">
  <g id="Group_225" data-name="Group 225" transform="translate(-246 -1713)">
    <path id="Path_270" data-name="Path 270" d="M761.739,2200.1a292.872,292.872,0,0,0,72.291-193.081C834.03,1844.635,702.4,1713,540.015,1713S246,1844.635,246,2007.015A292.872,292.872,0,0,0,318.291,2200.1Z" fill="#fff"/>
    <g id="Group_224" data-name="Group 224">
      <g id="Group_156" data-name="Group 156">
        <path id="Path_271" data-name="Path 271" d="M431.723,2043.58s38.331,6.021,66.663-38.233a192.1,192.1,0,0,1-10-30.105,260.136,260.136,0,0,1-37.5,15.354c-20.833,6.623-38.887,7.526-44.72,8.429C418.113,2026.721,431.723,2043.58,431.723,2043.58Z" fill="#ffd423"/>
      </g>
      <g id="Group_159" data-name="Group 159">
        <g id="Group_157" data-name="Group 157">
          <rect id="Rectangle_43" data-name="Rectangle 43" width="184.133" height="132.98" transform="translate(453.026 1970.038)" fill="#9bb8ff"/>
        </g>
        <g id="Group_158" data-name="Group 158">
          <rect id="Rectangle_44" data-name="Rectangle 44" width="184.133" height="1.548" transform="translate(453.026 1983.195)"/>
        </g>
      </g>
      <g id="Group_163" data-name="Group 163">
        <g id="Group_160" data-name="Group 160">
          <rect id="Rectangle_45" data-name="Rectangle 45" width="15.344" height="43.904" transform="translate(515.977 2011.614)" fill="#eaf2ff"/>
        </g>
        <g id="Group_161" data-name="Group 161">
          <rect id="Rectangle_46" data-name="Rectangle 46" width="15.344" height="33.773" transform="translate(537.378 2021.746)" fill="#eaf2ff"/>
        </g>
        <g id="Group_162" data-name="Group 162">
          <rect id="Rectangle_47" data-name="Rectangle 47" width="15.344" height="22.797" transform="translate(558.78 2032.722)" fill="#eaf2ff"/>
        </g>
      </g>
      <g id="Group_164" data-name="Group 164">
        <path id="Path_272" data-name="Path 272" d="M535.451,1970.038s19.534-7.81,26.8-9.077c4.442-.422,5.855.845,5.855.845l14.458,8.232Z" fill="#ffb07b"/>
      </g>
      <g id="Group_165" data-name="Group 165">
        <path id="Path_273" data-name="Path 273" d="M554.866,1964.9a27.1,27.1,0,0,1,7.59.7,34.6,34.6,0,0,0,5.047,4.222,16.564,16.564,0,0,1,4.24,4.01s-1.009,5.066-10.3-.633l-5.047-2.955-8.884-.845Z" fill="#ffb07b"/>
        <path id="Path_274" data-name="Path 274" d="M568.6,1976.687c-1.966,0-4.5-.945-7.559-2.823L556.155,1971l-8.713-.828.146-1.541,9.054.86,5.195,3.042c4.871,2.99,7.129,2.765,8.041,2.367a1.974,1.974,0,0,0,1-.936,16.762,16.762,0,0,0-3.8-3.5,35.306,35.306,0,0,1-5.006-4.156,26.381,26.381,0,0,0-7.145-.637l-.111-1.544a28.152,28.152,0,0,1,7.809.716l.232.05.164.172a34.045,34.045,0,0,0,4.92,4.114,17.263,17.263,0,0,1,4.451,4.223l.179.266-.063.315a3.467,3.467,0,0,1-2,2.333A4.694,4.694,0,0,1,568.6,1976.687Z"/>
      </g>
      <g id="Group_170" data-name="Group 170">
        <g id="Group_166" data-name="Group 166">
          <path id="Path_275" data-name="Path 275" d="M453.538,1913.28l-.885-1.269,67.069-46.746,54.961,38.306,53.686-30.158.758,1.349L574.6,1905.4l-54.873-38.245Z"/>
        </g>
        <g id="Group_167" data-name="Group 167">
          <ellipse id="Ellipse_26" data-name="Ellipse 26" cx="6.865" cy="7.177" rx="6.865" ry="7.177" transform="translate(514.07 1859.454)" fill="#ec1846"/>
        </g>
        <g id="Group_168" data-name="Group 168">
          <ellipse id="Ellipse_27" data-name="Ellipse 27" cx="6.865" cy="7.177" rx="6.865" ry="7.177" transform="translate(566.968 1894.774)" fill="#ec1846"/>
        </g>
        <g id="Group_169" data-name="Group 169">
          <ellipse id="Ellipse_28" data-name="Ellipse 28" cx="6.865" cy="7.177" rx="6.865" ry="7.177" transform="translate(621.884 1867.475)" fill="#ec1846"/>
        </g>
      </g>
      <g id="Group_192" data-name="Group 192">
        <g id="Group_173" data-name="Group 173">
          <g id="Group_171" data-name="Group 171">
            <path id="Path_276" data-name="Path 276" d="M770.009,2208.135l-8.076-107.228-87.3,8.865-2.3,89.075Z" fill="#eaf2ff"/>
            <path id="Path_277" data-name="Path 277" d="M768.852,2208.221l-7.987-106.04-85.1,8.642-2.278,88.054-2.321-.061,2.33-90.1L763,2099.632l8.165,108.416Z"/>
          </g>
          <g id="Group_172" data-name="Group 172">
            <path id="Path_278" data-name="Path 278" d="M689.22,2136.368l1.229,8.443,4.915,2.251,4.608,49.674Z" fill="#fff"/>
            <path id="Path_279" data-name="Path 279" d="M698.815,2196.844l-4.546-49.006-4.879-2.235-1.32-9.068,2.3-.334,1.138,7.818,4.951,2.269,4.67,50.342Z"/>
          </g>
        </g>
        <g id="Group_174" data-name="Group 174">
          <path id="Path_280" data-name="Path 280" d="M669.867,1931.481l-.069-2.294c1.5-8.8-.81-23.771-10.068-25.71-10.751-2.251-21.5,6.192-23.96,7.881,0,0-3.917,2.849-1.459,19.736-2.189,5.382-1.267,14.142-1.267,14.142l5.8-3.9s2.457,7.88,4.3,9.85a32.294,32.294,0,0,0,6.132-1.9l12.914,19.635,2.15,7.317,24.882-20.263Z" fill="#ffb07b"/>
        </g>
        <g id="Group_175" data-name="Group 175">
          <path id="Path_281" data-name="Path 281" d="M646.521,1920.223s2.995-5.91,2.765-6.966-15.528,3.645-15.528,3.645v-7.775s12.808-7.792,20.948-10.466c4.608,1.055,16.3,3.517,15.686,30.043.691,4.222.741,4.378.741,4.378l-7.333-2.305-5.99-2.111-4.838-2.955Z"/>
        </g>
        <g id="Group_176" data-name="Group 176">
          <path id="Path_282" data-name="Path 282" d="M638.842,1941.331l8.518.888,8.581-10.448,1.514,8.337s-1.312,7.6-13.628,20.264A67.755,67.755,0,0,1,638.842,1941.331Z"/>
        </g>
        <g id="Group_177" data-name="Group 177">
          <path id="Path_283" data-name="Path 283" d="M639.74,1932.977c1.209.693,2.319-2.265.96-2.758-1.3-.471-2.051,1.683-1.227,2.543A1.223,1.223,0,0,0,639.74,1932.977Z"/>
        </g>
        <g id="Group_178" data-name="Group 178">
          <path id="Path_284" data-name="Path 284" d="M651.676,1924.608s1.92-5.948,5.4-4.429c4.594,2.005,3.281,9.129-1.766,9.974Z" fill="#ffb07b"/>
        </g>
        <g id="Group_179" data-name="Group 179">
          <path id="Path_285" data-name="Path 285" d="M665.413,2118.215s79.714-2.955,99.067-10.976c-13.824-80.632-18.431-110.183-52.529-142.689-17.97-13.51-23.038-13.51-23.038-13.51s-19.584,17.234-25.52,21.975C662.932,2005.521,662.648,2077.266,665.413,2118.215Z"/>
        </g>
        <g id="Group_191" data-name="Group 191">
          <g id="Group_187" data-name="Group 187">
            <g id="Group_180" data-name="Group 180">
              <path id="Path_286" data-name="Path 286" d="M615.488,2041.1l-27.458-16.464s-9.692-2.252-11.845-5.911c-.848-1.674-.81-4.37-1.212-5.347-.776-1.89-2.259-2.256-3.9-1.126-.2.139-.936,1.787-1.077,1.97-1.884.845-3.23,3.378-3.5,4.785-2.154.281-2.154,7.036-2.423,9.287s2.154,10.414,2.154,10.414,7,12.1,37.418,27.018C614.411,2045.745,615.488,2041.1,615.488,2041.1Z" fill="#ffb07b"/>
            </g>
            <g id="Group_181" data-name="Group 181">
              <path id="Path_287" data-name="Path 287" d="M603.24,2035.331a31.784,31.784,0,0,0-12.114-17.027,41.8,41.8,0,0,0-9.288-2.955c-4.038-.563-4.845-1.97-5.653-2.251s-1.346,2.814,0,5.628,11.576,9.851,11.576,9.851Z" fill="#ffb07b"/>
              <path id="Path_288" data-name="Path 288" d="M602.5,2035.548a31.365,31.365,0,0,0-11.742-16.562,40.7,40.7,0,0,0-9.024-2.87,10.542,10.542,0,0,1-5.3-1.969l-.169-.12a6.968,6.968,0,0,0,.621,4.366c1.031,2.155,8.518,7.622,11.316,9.546l-.877,1.275c-1.065-.732-10.44-7.237-11.835-10.153-1.184-2.476-1.111-5.4-.256-6.352a1.1,1.1,0,0,1,1.208-.342,3.6,3.6,0,0,1,.892.521,9.047,9.047,0,0,0,4.614,1.7,41.991,41.991,0,0,1,9.5,3.017l.091.049a32.268,32.268,0,0,1,12.445,17.466Z"/>
            </g>
            <g id="Group_182" data-name="Group 182">
              <path id="Path_289" data-name="Path 289" d="M661.387,2088.629c-8.9,0-16.135-7.56-16.135-16.851s7.238-16.851,16.135-16.851,16.135,7.559,16.135,16.851S670.284,2088.629,661.387,2088.629Z"/>
            </g>
            <g id="Group_183" data-name="Group 183">
              <path id="Path_290" data-name="Path 290" d="M613.335,2039.694,601.221,2064.6s27.947,19.562,57.424,23.783c5.145-23.378,6.9-32.889,6.9-32.889S634.332,2049.825,613.335,2039.694Z"/>
            </g>
            <g id="Group_184" data-name="Group 184">
              <path id="Path_291" data-name="Path 291" d="M565.868,2030.088a45.177,45.177,0,0,1-.175-10.726l1.54.16a43.548,43.548,0,0,0,.168,10.356Z"/>
            </g>
            <g id="Group_185" data-name="Group 185">
              <path id="Path_292" data-name="Path 292" d="M569.948,2025.31a46.06,46.06,0,0,1-.07-12.592l1.535.193a44.6,44.6,0,0,0,.065,12.169Z"/>
            </g>
            <g id="Group_186" data-name="Group 186">
              <path id="Path_293" data-name="Path 293" d="M546.708,1998.955l28.468,17.1,2.221,4.222-31.5-16.042Z" fill="#fff"/>
              <path id="Path_294" data-name="Path 294" d="M579.215,2022.069l-34.164-17.4,1.066-6.97,29.642,17.8ZM546.749,2003.8l28.829,14.683-.987-1.875L547.3,2000.212Z"/>
            </g>
          </g>
          <g id="Group_190" data-name="Group 190">
            <g id="Group_188" data-name="Group 188">
              <path id="Path_295" data-name="Path 295" d="M677.522,1973.044s-28.141,76.854-31.775,94.585a226.439,226.439,0,0,0,29.024,13.551s32.448-39.275,35.679-74.314C707.259,1965.956,677.522,1973.044,677.522,1973.044Z"/>
            </g>
            <g id="Group_189" data-name="Group 189">
              <path id="Path_296" data-name="Path 296" d="M661.387,2088.629c-8.9,0-16.135-7.56-16.135-16.851s7.238-16.851,16.135-16.851,16.135,7.559,16.135,16.851S670.284,2088.629,661.387,2088.629Z"/>
            </g>
          </g>
        </g>
      </g>
      <g id="Group_220" data-name="Group 220">
        <g id="Group_198" data-name="Group 198">
          <g id="Group_193" data-name="Group 193">
            <path id="Path_297" data-name="Path 297" d="M396.447,1988.789s-25.276,19.869-36.387,85.2-11.388,66.23-11.388,66.23,5,11.74,38.053,13.547,48.053-3.613,48.053-3.613,1.389-69.843,3.056-80.981,3.611-15.053,2.222-22.88-19.721-48.769-19.721-48.769Z" fill="#ffd423"/>
          </g>
          <g id="Group_194" data-name="Group 194">
            <path id="Path_298" data-name="Path 298" d="M396.794,1989.918s7.292,18.289,19.791,24.385c2.292-4.064,2.292-4.967,2.292-4.967l5.208,2.258-3.542-9.483s1.25,7.451-9.791.451-13.958-12.644-13.958-12.644Z" fill="#eaf2ff"/>
          </g>
          <g id="Group_197" data-name="Group 197">
            <g id="Group_195" data-name="Group 195">
              <path id="Path_299" data-name="Path 299" d="M428.39,1964.1l-8.889,35.523s2.223,4.817.278,6.021-15.832-2.709-23.332-16.859c10.833-24.986,13.333-31.609,13.333-31.609Z" fill="#ffb07b"/>
            </g>
            <g id="Group_196" data-name="Group 196">
              <path id="Path_300" data-name="Path 300" d="M413.668,1965.534l10.691,14.679,4.031-16.109Z"/>
            </g>
          </g>
        </g>
        <g id="Group_199" data-name="Group 199">
          <path id="Path_301" data-name="Path 301" d="M348.255,2137.356l-5.416,69.09,95.828-2.709-4.166-57.8Z"/>
        </g>
        <g id="Group_209" data-name="Group 209">
          <g id="Group_205" data-name="Group 205">
            <g id="Group_200" data-name="Group 200">
              <path id="Path_302" data-name="Path 302" d="M419.779,1969.522s13.888,1.205,17.5-2.709.278-14.751-3.611-24.987-13.054-19.869-18.887-20.17-31.11,8.73-25.555,27.094S410.335,1968.017,419.779,1969.522Z" fill="#ffb07b"/>
            </g>
            <g id="Group_201" data-name="Group 201">
              <path id="Path_303" data-name="Path 303" d="M438.146,1950.728c-2.867,0-5.114-3.216-5.114-7.321s2.247-7.322,5.114-7.322,5.114,3.216,5.114,7.322S441.014,1950.728,438.146,1950.728Zm0-13.095c-1.933,0-3.566,2.644-3.566,5.774s1.633,5.774,3.566,5.774,3.566-2.645,3.566-5.774S440.079,1937.633,438.146,1937.633Z"/>
            </g>
            <g id="Group_202" data-name="Group 202">
              <path id="Path_304" data-name="Path 304" d="M432,1943.482c2.916,4.516,6.944,4.817,6.388,8.279-.256,1.6-3.333,1.053-3.333,1.053Z" fill="#ffb07b"/>
              <path id="Path_305" data-name="Path 305" d="M436.158,1953.678a7.551,7.551,0,0,1-1.236-.1l.267-1.524a3.91,3.91,0,0,0,2.288-.185.32.32,0,0,0,.149-.229c.236-1.473-.5-2.136-2.2-3.493a17.225,17.225,0,0,1-4.074-4.243l1.3-.84a15.726,15.726,0,0,0,3.741,3.875c1.691,1.352,3.152,2.52,2.762,4.946a1.862,1.862,0,0,1-.78,1.245A3.928,3.928,0,0,1,436.158,1953.678Z"/>
            </g>
            <g id="Group_203" data-name="Group 203">
              <path id="Path_306" data-name="Path 306" d="M425.265,1954.792c-3.222,0-5.843-3.284-5.843-7.321s2.621-7.322,5.843-7.322,5.843,3.285,5.843,7.322S428.487,1954.792,425.265,1954.792Zm0-13.095c-2.369,0-4.3,2.59-4.3,5.774s1.926,5.774,4.3,5.774,4.295-2.59,4.295-5.774S427.633,1941.7,425.265,1941.7Z"/>
            </g>
            <g id="Group_204" data-name="Group 204">
              <path id="Path_307" data-name="Path 307" d="M433.317,1959.8a4.543,4.543,0,0,1-3.952-2.819l1.41-.639a2.988,2.988,0,0,0,2.612,1.909,2.041,2.041,0,0,0,1.371-.682,1.982,1.982,0,0,0,.556-1.428l1.546-.071a3.517,3.517,0,0,1-.963,2.546,3.566,3.566,0,0,1-2.453,1.182Z"/>
            </g>
          </g>
          <g id="Group_206" data-name="Group 206">
            <path id="Path_308" data-name="Path 308" d="M406.3,1917.824c11.85-3.37,20.64,10.61,12.574,20.219-.059.07-.124.143-.192.217-6.771,7.418-9.152,17.012-10.444,22.071s-.169,17.268-11,28.877-30.784,50.759-35.506,73.639c-17.221-.3-40.276-2.108-50.831-34.018s22.777-48.77,36.109-55.995,36.961-35.61,45.057-45.094C395.9,1923.224,401.073,1919.309,406.3,1917.824Z"/>
          </g>
          <g id="Group_207" data-name="Group 207">
            <path id="Path_309" data-name="Path 309" d="M410.4,1924.14s6.735-7.15,15.763-2.71c7.374,3.628,7.5,9.559,5.833,15.881-5-6.322-10-8.731-13.888-10.838A20.565,20.565,0,0,0,410.4,1924.14Z"/>
          </g>
          <g id="Group_208" data-name="Group 208">
            <path id="Path_310" data-name="Path 310" d="M410.544,1952.438s-8.125-1.58-8.4,5.043,6.111,9.633,10.278,7.225Z" fill="#ffb07b"/>
          </g>
        </g>
        <g id="Group_215" data-name="Group 215">
          <g id="Group_210" data-name="Group 210">
            <path id="Path_311" data-name="Path 311" d="M566.763,2111.883l20.728-1.689,13.191-5.066s-1.077-4.5-6.73-3.377a32.445,32.445,0,0,0-9.422,3.377l-17.5-1.407Z" fill="#ffb07b"/>
          </g>
          <g id="Group_211" data-name="Group 211">
            <path id="Path_312" data-name="Path 312" d="M586.513,2105.233H541.229l9.556-4.995H595.75Zm-42.133-.773h41.937l6.375-3.448H550.975Z"/>
          </g>
          <g id="Group_212" data-name="Group 212">
            <path id="Path_313" data-name="Path 313" d="M469.043,2125.673s55.994-3.1,80.76-7.88c2.176-1.061,28.266-6.755,28.266-6.755s19.632-6.971,21-7.88c1.346-1.407-1.884-1.97-2.961-1.97s-12.653,1.407-17.768,2.533c-12.113-1.126-31.429-3.237-31.429-3.237l-15.142-2.955-57.071-.281Z" fill="#ffb07b"/>
          </g>
          <g id="Group_213" data-name="Group 213">
            <path id="Path_314" data-name="Path 314" d="M550.143,2118.488l-.679-1.391c2.183-1.065,25.494-6.171,28.393-6.8,7.4-2.63,19.342-6.974,20.709-7.736l.006-.007a5.5,5.5,0,0,0-2.466-.588c-1.067,0-12.613,1.417-17.6,2.515l-.118.026-.12-.012c-11.982-1.113-31.248-3.216-31.441-3.238l-15.207-2.964.3-1.519,15.142,2.955c.129.011,19.256,2.1,31.233,3.214,5.276-1.144,16.706-2.525,17.816-2.525.033,0,3.3.068,3.949,1.581a1.5,1.5,0,0,1-.429,1.7l-.131.109c-1.4.935-19.148,7.249-21.167,7.965l-.093.027C567.783,2114.075,551.677,2117.739,550.143,2118.488Z"/>
          </g>
          <g id="Group_214" data-name="Group 214">
            <path id="Path_315" data-name="Path 315" d="M545.7,2103.862l7.874-3.378,13.372-.559a2.7,2.7,0,0,0,2.36-3.572l-.016-.051a2.631,2.631,0,0,0-2.09-1.828l-13.222-2.011H541.862l-10.9,6.755Z" fill="#ffb07b"/>
            <path id="Path_316" data-name="Path 316" d="M546,2104.573l-.61-1.423,8.005-3.433,13.513-.565a1.785,1.785,0,0,0,1.392-.781,2.02,2.02,0,0,0,.264-1.783,1.871,1.871,0,0,0-1.486-1.349l-13.163-2H542.082l-10.715,6.639-.816-1.316,11.09-6.871,12.451.009,13.222,2.011a3.386,3.386,0,0,1,2.711,2.359,3.579,3.579,0,0,1-.454,3.19,3.32,3.32,0,0,1-2.595,1.44l-13.23.554Z"/>
          </g>
        </g>
        <g id="Group_219" data-name="Group 219">
          <g id="Group_216" data-name="Group 216">
            <path id="Path_317" data-name="Path 317" d="M474.931,2096.205l-6,40.273s-29.847,11.091-51.09-7.008-38.259-54.637-41.948-81.265c-2.829-22.543,11.671-46.9,22.8-36.591s14,29.984,23.465,51.233,17.082,25.075,25.72,28.788C457.236,2095.656,474.931,2096.205,474.931,2096.205Z" fill="#fcce4b"/>
          </g>
          <g id="Group_217" data-name="Group 217">
            <path id="Path_318" data-name="Path 318" d="M410.514,2034.991a41.791,41.791,0,0,0-15.862-24.653l.907-1.254a43.359,43.359,0,0,1,16.465,25.572Z"/>
          </g>
          <g id="Group_218" data-name="Group 218">
            <path id="Path_319" data-name="Path 319" d="M448.2,2140.56c-9.706,0-21.2-2.262-30.868-10.5-21.922-18.677-38.677-56.232-42.212-81.748l1.533-.213c3.495,25.23,20.042,62.345,41.683,80.783,20.642,17.588,50.024,6.98,50.318,6.871l.539,1.451A67.534,67.534,0,0,1,448.2,2140.56Z"/>
          </g>
        </g>
      </g>
      <g id="Group_223" data-name="Group 223">
        <g id="Group_221" data-name="Group 221">
          <path id="Path_320" data-name="Path 320" d="M561.163,2138.424c-18.905.125-34.2,16.182-34.2,35.976,0,19.873,15.409,35.983,34.418,35.983,18.933,0,34.291-15.985,34.412-35.75H561.163Z" fill="#ec1846"/>
        </g>
        <g id="Group_222" data-name="Group 222">
          <path id="Path_321" data-name="Path 321" d="M566.715,2132.847c-.075,0-.148.005-.222.005v36.209h34.634c0-.078.005-.154.005-.232C601.132,2148.956,585.723,2132.847,566.715,2132.847Z" fill="#3533a2"/>
        </g>
      </g>
    </g>
  </g>
</svg>
