<svg xmlns="http://www.w3.org/2000/svg" width="588.03" height="492.882" viewBox="0 0 588.03 492.882">
  <g id="Group_337" data-name="Group 337" transform="translate(-246 -3155.869)">
    <path id="Path_322" data-name="Path 322" d="M761.739,3642.965a292.876,292.876,0,0,0,72.291-193.081c0-162.38-131.635-294.015-294.015-294.015S246,3287.5,246,3449.884a292.876,292.876,0,0,0,72.291,193.081Z" fill="#fff"/>
    <g id="Group_336" data-name="Group 336">
      <g id="Group_235" data-name="Group 235">
        <g id="Group_226" data-name="Group 226">
          <path id="Path_323" data-name="Path 323" d="M538.062,3457.941a29.995,29.995,0,1,1,29.995-29.995A30.029,30.029,0,0,1,538.062,3457.941Zm0-58.338a28.343,28.343,0,1,0,28.343,28.343A28.376,28.376,0,0,0,538.062,3399.6Z"/>
        </g>
        <g id="Group_230" data-name="Group 230">
          <g id="Group_227" data-name="Group 227">
            <path id="Path_324" data-name="Path 324" d="M567.344,3439.021q-.574-1.058-1.205-2.136l1.426-.834q.644,1.1,1.23,2.181Z"/>
          </g>
          <g id="Group_228" data-name="Group 228">
            <path id="Path_325" data-name="Path 325" d="M567.153,3464.4l-.162-1.644a6.345,6.345,0,0,0,3.817-1.567l.113-.109,1.162,1.174-.149.144A7.958,7.958,0,0,1,567.153,3464.4Zm-5.146-.419a31.361,31.361,0,0,1-4.811-1.541l.619-1.531a29.755,29.755,0,0,0,4.554,1.46Zm-9.344-3.668c-1.4-.739-2.845-1.581-4.311-2.5l.879-1.4c1.431.9,2.846,1.721,4.206,2.441Zm21.657-2.936-1.638-.219a12.074,12.074,0,0,0,.1-1.609,18.275,18.275,0,0,0-.278-3.044l1.629-.276a19.969,19.969,0,0,1,.3,3.32A13.847,13.847,0,0,1,574.32,3457.379Zm-30.094-2.341c-1.31-.937-2.643-1.944-3.963-2.992l1.028-1.293c1.3,1.03,2.609,2.02,3.9,2.941Zm-7.777-6.163c-1.23-1.068-2.466-2.188-3.674-3.328l1.133-1.2c1.193,1.125,2.412,2.229,3.625,3.283Zm34.855-1c-.481-1.427-1.082-2.94-1.786-4.5l1.505-.681c.727,1.606,1.348,3.171,1.846,4.651Zm-42.066-5.793q-1.143-1.164-2.275-2.376-.57-.612-1.129-1.224l1.22-1.113q.553.6,1.116,1.209,1.119,1.2,2.246,2.346Zm-6.671-7.326c-1.068-1.266-2.118-2.562-3.12-3.85l1.3-1.015c.989,1.272,2.026,2.55,3.08,3.8Zm-6.08-7.829c-.976-1.372-1.911-2.756-2.779-4.112l1.391-.891c.854,1.334,1.774,2.7,2.734,4.046Zm-5.346-8.368c-.845-1.495-1.62-2.981-2.3-4.414l1.491-.711c.668,1.4,1.425,2.85,2.251,4.313Zm-4.261-9.013a36.987,36.987,0,0,1-1.442-4.822l1.613-.355a35.261,35.261,0,0,0,1.379,4.6Zm-.333-9.854-1.651-.054a9.694,9.694,0,0,1,1.445-5.11l1.377.913A8.09,8.09,0,0,0,506.547,3399.688Zm18.245-3.425a42.839,42.839,0,0,0-4.425-1.93l.568-1.551a44.329,44.329,0,0,1,4.6,2Zm-13.586-3.154-.379-1.608a11.15,11.15,0,0,1,2.555-.278h.006a16.613,16.613,0,0,1,2.653.229l-.265,1.63a14.944,14.944,0,0,0-2.388-.207h-.006A9.564,9.564,0,0,0,511.206,3393.109Z"/>
          </g>
          <g id="Group_229" data-name="Group 229">
            <path id="Path_326" data-name="Path 326" d="M531.138,3399.939q-1.047-.684-2.074-1.306l.856-1.412q1.05.635,2.121,1.334Z"/>
          </g>
        </g>
        <g id="Group_234" data-name="Group 234">
          <g id="Group_231" data-name="Group 231">
            <path id="Path_327" data-name="Path 327" d="M552.237,3402.846l-.85-1.416q1.1-.66,2.158-1.26l.814,1.437Q553.32,3402.2,552.237,3402.846Z"/>
          </g>
          <g id="Group_232" data-name="Group 232">
            <path id="Path_328" data-name="Path 328" d="M502.554,3457.456a3.463,3.463,0,0,1-1.357-.95,3.86,3.86,0,0,1-.855-2.593,7.7,7.7,0,0,1,.192-1.632l1.614.351a6.115,6.115,0,0,0-.154,1.281,2.267,2.267,0,0,0,.456,1.516,1.806,1.806,0,0,0,.718.494Zm5.384-.11-.408-1.6a30.816,30.816,0,0,0,4.539-1.609l.656,1.517A32.668,32.668,0,0,1,507.938,3457.346Zm9.3-3.885-.776-1.458c1.358-.723,2.793-1.54,4.266-2.427l.852,1.415C520.084,3451.893,518.623,3452.725,517.239,3453.461Zm8.557-5.133-.91-1.38c1.327-.874,2.694-1.81,4.064-2.781l.955,1.348C528.52,3446.5,527.137,3447.443,525.8,3448.328Zm-21.881-.056-1.454-.784a46.593,46.593,0,0,1,2.654-4.284l1.36.938A45.1,45.1,0,0,0,503.915,3448.272Zm30.007-5.7-.994-1.319c1.289-.972,2.6-1.987,3.9-3.02l1.029,1.292C536.545,3440.572,535.223,3441.6,533.922,3442.577Zm7.782-6.192-1.059-1.267q.966-.808,1.935-1.642.914-.786,1.806-1.571l1.091,1.241q-.9.791-1.82,1.582Q542.679,3435.568,541.7,3436.385Zm7.465-6.57-1.122-1.213c1.211-1.119,2.413-2.262,3.575-3.4l1.154,1.182C551.6,3427.533,550.39,3428.685,549.169,3429.815Zm7.118-6.952-1.188-1.148c1.168-1.208,2.3-2.418,3.366-3.6l1.225,1.109C558.612,3420.419,557.467,3421.642,556.287,3422.863Zm6.675-7.4-1.269-1.058c1.1-1.32,2.126-2.615,3.048-3.848l1.323.989C565.125,3412.806,564.081,3414.123,562.962,3415.466Zm5.958-8.041-1.4-.881a31.628,31.628,0,0,0,2.3-4.239l1.517.656A33.612,33.612,0,0,1,568.92,3407.425Zm-10.229-8.1-.718-1.488a45.972,45.972,0,0,1,4.641-1.965l.55,1.558A44.369,44.369,0,0,0,558.691,3399.324ZM570.727,3398a1.86,1.86,0,0,0-.4-.894,2.845,2.845,0,0,0-2.236-.736,3.33,3.33,0,0,0-.348.009l-.08-1.651c.147-.006.3-.008.431-.01a4.368,4.368,0,0,1,3.486,1.312,3.5,3.5,0,0,1,.773,1.664Z"/>
          </g>
          <g id="Group_233" data-name="Group 233">
            <path id="Path_329" data-name="Path 329" d="M509.406,3440.192l-1.3-1.024q.754-.954,1.574-1.942l1.27,1.056Q510.147,3439.251,509.406,3440.192Z"/>
          </g>
        </g>
      </g>
      <g id="Group_236" data-name="Group 236">
        <path id="Path_330" data-name="Path 330" d="M495.209,3288.462a4.7,4.7,0,1,1,4.7-4.7A4.7,4.7,0,0,1,495.209,3288.462Zm0-7.743a3.046,3.046,0,1,0,3.045,3.046A3.049,3.049,0,0,0,495.209,3280.719Z"/>
      </g>
      <g id="Group_237" data-name="Group 237">
        <path id="Path_331" data-name="Path 331" d="M411.25,3350.145a4.547,4.547,0,1,1,4.547-4.546A4.551,4.551,0,0,1,411.25,3350.145Zm0-7.441a2.894,2.894,0,1,0,2.895,2.9A2.9,2.9,0,0,0,411.25,3342.7Z" fill="#fcce4b"/>
      </g>
      <g id="Group_238" data-name="Group 238">
        <path id="Path_332" data-name="Path 332" d="M569.694,3285.829a4.7,4.7,0,1,1,4.7-4.7A4.7,4.7,0,0,1,569.694,3285.829Zm0-7.743a3.046,3.046,0,1,0,3.046,3.046A3.049,3.049,0,0,0,569.694,3278.086Z"/>
      </g>
      <g id="Group_241" data-name="Group 241">
        <g id="Group_239" data-name="Group 239">
          <rect id="Rectangle_48" data-name="Rectangle 48" width="1.652" height="14.031" transform="matrix(0.707, -0.707, 0.707, 0.707, 544.212, 3323.901)"/>
        </g>
        <g id="Group_240" data-name="Group 240">
          <rect id="Rectangle_49" data-name="Rectangle 49" width="14.031" height="1.652" transform="matrix(0.707, -0.707, 0.707, 0.707, 544.212, 3332.655)"/>
        </g>
      </g>
      <g id="Group_248" data-name="Group 248">
        <g id="Group_244" data-name="Group 244">
          <g id="Group_242" data-name="Group 242">
            <rect id="Rectangle_50" data-name="Rectangle 50" width="0.826" height="14.601" transform="translate(530.95 3260.012) rotate(-45)" fill="#fcce4b"/>
          </g>
          <g id="Group_243" data-name="Group 243">
            <rect id="Rectangle_51" data-name="Rectangle 51" width="14.601" height="0.826" transform="translate(530.95 3269.753) rotate(-45)" fill="#fcce4b"/>
          </g>
        </g>
        <g id="Group_247" data-name="Group 247">
          <g id="Group_245" data-name="Group 245">
            <rect id="Rectangle_52" data-name="Rectangle 52" width="1.652" height="14.601" transform="translate(530.658 3260.304) rotate(-45)" fill="#fcce4b"/>
          </g>
          <g id="Group_246" data-name="Group 246">
            <rect id="Rectangle_53" data-name="Rectangle 53" width="14.601" height="1.652" transform="translate(530.658 3269.461) rotate(-45)" fill="#fcce4b"/>
          </g>
        </g>
      </g>
      <g id="Group_295" data-name="Group 295">
        <g id="Group_249" data-name="Group 249">
          <path id="Path_333" data-name="Path 333" d="M518.682,3545.614s-24.869,30.69-48.681,50c-25.134-34.394-26.192-35.717-26.192-35.717s37.3-27.779,55.56-36.246c19.313,21.431,16.932,19.579,16.932,19.579Z" fill="#3533a2"/>
        </g>
        <g id="Group_250" data-name="Group 250">
          <circle id="Ellipse_29" data-name="Ellipse 29" cx="22.224" cy="22.224" r="22.224" transform="translate(434.814 3555.733)" fill="#6f7eff"/>
        </g>
        <g id="Group_251" data-name="Group 251">
          <path id="Path_334" data-name="Path 334" d="M435.343,3582.918l43.918-4.961s4.233-81.553.794-113.831-15.874-40.215-21.166-46.035C441.428,3487.937,432.7,3563.6,435.343,3582.918Z" fill="#3533a2"/>
        </g>
        <g id="Group_252" data-name="Group 252">
          <path id="Path_335" data-name="Path 335" d="M361.263,3429.864s24.605-28.573,75.8-23.811c25.8,10.318,29.764,21.827,29.764,21.827s-9.789,170.515-5.82,219.328a979.947,979.947,0,0,1-132.946-1.587S327.927,3472.328,361.263,3429.864Z" fill="#3533a2"/>
        </g>
        <g id="Group_253" data-name="Group 253">
          <path id="Path_336" data-name="Path 336" d="M460.183,3647.275c-2.417-29.726.53-116.469,3.788-181.717l1.649.082c-3.255,65.2-6.2,151.855-3.791,181.5Z"/>
        </g>
        <g id="Group_254" data-name="Group 254">
          <path id="Path_337" data-name="Path 337" d="M395.128,3409.625s10.054-14.287,34.13-10.583,35.452,25.4,35.452,25.4-5.556,17.2-19.314,17.99c-11.376-.793-26.457-28.044-33.865-32.277S395.128,3409.625,395.128,3409.625Z" fill="#3533a2"/>
        </g>
        <g id="Group_255" data-name="Group 255">
          <path id="Path_338" data-name="Path 338" d="M445.392,3443.259l-.053,0c-7.415-.517-15.856-11.132-23.3-20.5-4.235-5.326-8.235-10.356-10.913-11.886-6.977-3.986-15.592-.518-15.679-.483l-.629-1.527c.383-.158,9.456-3.808,17.127.576,2.954,1.688,6.862,6.6,11.387,12.292,6.86,8.626,15.393,19.357,22.075,19.875,12.986-.793,18.467-17.251,18.521-17.418l1.572.509c-.234.724-5.893,17.744-20.052,18.561Z"/>
        </g>
        <g id="Group_256" data-name="Group 256">
          <rect id="Rectangle_54" data-name="Rectangle 54" width="2.478" height="67.938" transform="translate(439.925 3433.305)"/>
        </g>
        <g id="Group_257" data-name="Group 257">
          <rect id="Rectangle_55" data-name="Rectangle 55" width="2.478" height="54.842" transform="translate(447.069 3434.892)"/>
        </g>
        <g id="Group_270" data-name="Group 270">
          <g id="Group_258" data-name="Group 258">
            <path id="Path_339" data-name="Path 339" d="M445.9,3370.141s-5.346,14.971-1.425,17.11,8.911-5.347,8.911-5.347Z"/>
          </g>
          <g id="Group_259" data-name="Group 259">
            <path id="Path_340" data-name="Path 340" d="M473.218,3394.45a29.065,29.065,0,0,1-6.915-3.2l.442-.7a28.311,28.311,0,0,0,6.718,3.109Z"/>
          </g>
          <g id="Group_260" data-name="Group 260">
            <path id="Path_341" data-name="Path 341" d="M465.865,3349.111s-14.444,14.187-15.518,29.339l-19.057,21.989s3.565,14.971,10.337,23.525,12.476.713,12.476.713l13.151-20.912a10.73,10.73,0,0,0,4.671.238c12.475-2.138,23.525-27.446,27.8-40.991A58.625,58.625,0,0,0,465.865,3349.111Z" fill="#ffb07b"/>
          </g>
          <g id="Group_261" data-name="Group 261">
            <path id="Path_342" data-name="Path 342" d="M470.088,3404.987c-11.868,0-19.616-18.379-19.956-19.2l1.526-.632c.083.2,8.453,20.044,20.127,18.037,12.033-2.062,23.024-27.345,27.155-40.425l1.575.5c-4.548,14.4-15.659,39.364-28.45,41.557A11.809,11.809,0,0,1,470.088,3404.987Z"/>
          </g>
          <g id="Group_262" data-name="Group 262">
            <path id="Path_343" data-name="Path 343" d="M469.786,3356.6s-6.059,8.2-15.683,8.912l-6.416-.713s7.485-22.1,12.475-24.951c11.406,0,36.358-1.783,39.565,6.772,7.842-2.139,15.328,1.782,16.04,8.2s-5.346,7.485-5.346,7.485-10.694,10.694-29.229,0C475.489,3366.22,469.786,3356.6,469.786,3356.6Z"/>
          </g>
          <g id="Group_263" data-name="Group 263">
            <path id="Path_344" data-name="Path 344" d="M489.034,3375.844s21.387-1.069,21.743-14.97c-14.97-6.773-24.594-5.347-24.594-5.347S477.984,3374.775,489.034,3375.844Z"/>
          </g>
          <g id="Group_264" data-name="Group 264">
            <path id="Path_345" data-name="Path 345" d="M478.482,3391.645a5.592,5.592,0,0,1-3.123-.876l.973-1.334a3.958,3.958,0,0,0,2.334.554c1.028-.427,2.252-7.224,2.592-14.539l1.651.076c-.278,5.969-1.19,16-4.18,16.115C478.645,3391.643,478.563,3391.645,478.482,3391.645Z"/>
          </g>
          <g id="Group_265" data-name="Group 265">
            <path id="Path_346" data-name="Path 346" d="M458.38,3366.933s-4.634-10.337-11.763-4.277,1.07,14.971,5.347,15.327Z" fill="#ffb07b"/>
            <path id="Path_347" data-name="Path 347" d="M451.895,3378.806c-2.875-.239-7.113-3.687-8.479-7.941a7.9,7.9,0,0,1,2.666-8.838c2.081-1.769,4.194-2.425,6.275-1.955,4.238.958,6.675,6.3,6.777,6.523l-1.507.677c-.022-.048-2.207-4.818-5.638-5.59-1.546-.346-3.175.191-4.837,1.6a6.246,6.246,0,0,0-2.163,7.075c1.135,3.536,4.782,6.612,7.044,6.8Z"/>
          </g>
          <g id="Group_266" data-name="Group 266">
            <path id="Path_348" data-name="Path 348" d="M470.71,3376.5a32.466,32.466,0,0,1-2.51-2.668c-.5-.575-1.013-1.171-1.683-1.869l1.1-1.228a18.961,18.961,0,0,0,3.113,1.39c2.932,1.15,4.9,1.982,5.519,3.027l-1.421.842c-.361-.61-2.88-1.616-4.511-2.257.438.485.92.989,1.527,1.561Z"/>
          </g>
          <g id="Group_267" data-name="Group 267">
            <path id="Path_349" data-name="Path 349" d="M484.958,3384.253a9.134,9.134,0,0,0-3.355-3.755l-.565-.44,1.013-1.305a19.088,19.088,0,0,0,3.112,1.39c2.933,1.15,4.9,1.982,5.52,3.028l-1.421.841c-.3-.5-2.08-1.283-3.609-1.9a9.165,9.165,0,0,1,.814,1.468Z"/>
          </g>
          <g id="Group_268" data-name="Group 268">
            <path id="Path_350" data-name="Path 350" d="M471.368,3395.385a6.5,6.5,0,0,1-5.309-2.781,11.955,11.955,0,0,1-1.582-4.455l1.617-.335a10.539,10.539,0,0,0,1.327,3.855,4.873,4.873,0,0,0,4.418,2.04l.172,1.643A6.3,6.3,0,0,1,471.368,3395.385Z"/>
          </g>
          <g id="Group_269" data-name="Group 269">
            <path id="Path_351" data-name="Path 351" d="M451.585,3387.5s-1.518,19.23,12.146,21.507c2.277-3.542,3.523-5.242,3.523-5.242S457.4,3401.922,451.585,3387.5Z"/>
          </g>
        </g>
        <g id="Group_288" data-name="Group 288">
          <g id="Group_275" data-name="Group 275">
            <g id="Group_271" data-name="Group 271">
              <circle id="Ellipse_30" data-name="Ellipse 30" cx="29.734" cy="29.734" r="29.734" transform="translate(312.781 3537.244)" fill="#6f7eff"/>
            </g>
            <g id="Group_272" data-name="Group 272">
              <path id="Path_352" data-name="Path 352" d="M361.263,3429.864s-44.911,38.686-48.482,137.106c15.179,1.786,57.511,5.266,57.511,5.266s9.623-64.588,25.5-111.814C409.283,3419.546,371.581,3415.578,361.263,3429.864Z" fill="#3533a2"/>
            </g>
            <g id="Group_273" data-name="Group 273">
              <path id="Path_353" data-name="Path 353" d="M369.176,3543.688a65.16,65.16,0,0,0-12.258-8.583l.786-1.453a66.881,66.881,0,0,1,12.569,8.8Z"/>
            </g>
            <g id="Group_274" data-name="Group 274">
              <path id="Path_354" data-name="Path 354" d="M373.477,3557.984c3.784-21.763,11.921-64.054,23.1-97.3l-1.565-.527c-11.17,33.23-19.31,75.444-23.119,97.322C372.412,3557.631,372.944,3557.8,373.477,3557.984Z"/>
            </g>
          </g>
          <g id="Group_287" data-name="Group 287">
            <g id="Group_280" data-name="Group 280">
              <g id="Group_276" data-name="Group 276">
                <path id="Path_355" data-name="Path 355" d="M458.2,3590.194c-4.131-.936-8.435-2.134-12.836-3.53-.889,10.242-1.958,20.472-2.8,30.715,74.979,10.023,91.437-24.407,91.437-24.407S502.643,3589.8,458.2,3590.194Z" fill="#ffb07b"/>
              </g>
              <g id="Group_277" data-name="Group 277">
                <path id="Path_356" data-name="Path 356" d="M464.181,3577.362l-1.587,29.9,91.277-4.233-2.117-29.367Z"/>
              </g>
              <g id="Group_278" data-name="Group 278">
                <path id="Path_357" data-name="Path 357" d="M454.524,3601.835c1.984-6.35,8.139-7,19.975-3.572,10.054,2.91,12.5,7.177,12.5,7.177s15.676,4.2,20.967,4.6c3.7,2.911.674,5.445-12.038,5.623-9.458.132-21.024.331-30.954-1.389C459.179,3613.266,452.54,3608.184,454.524,3601.835Z" fill="#ffb07b"/>
              </g>
              <g id="Group_279" data-name="Group 279">
                <path id="Path_358" data-name="Path 358" d="M487.213,3616.567a135.382,135.382,0,0,1-22.379-1.483l.281-1.628c9.668,1.674,21.088,1.513,30.264,1.384l.539-.007c11.553-.162,12.589-2.245,12.669-2.482.12-.354-.23-.912-.943-1.513-5.526-.5-20.225-4.432-20.858-4.6l-.332-.089-.17-.3c-.021-.035-2.492-4.038-12.014-6.794-6.065-1.756-10.3-2.346-13.321-1.858l-.264-1.631c3.274-.527,7.735.076,14.044,1.9,8.828,2.556,12,6.174,12.783,7.251,2.187.579,15.76,4.135,20.517,4.492l.251.018.2.156c1.864,1.465,1.939,2.708,1.674,3.493-.778,2.3-5.427,3.481-14.211,3.605l-.539.007C492.821,3616.528,490.061,3616.567,487.213,3616.567Z"/>
              </g>
            </g>
            <g id="Group_286" data-name="Group 286">
              <g id="Group_281" data-name="Group 281">
                <path id="Path_359" data-name="Path 359" d="M448.968,3587.813c-41.027-12.171-89.093-44.973-89.093-44.973l-38.009,45.529s33.038,28.983,122.737,30.8C445.806,3609.161,447.77,3597.817,448.968,3587.813Z" fill="#6f7eff"/>
              </g>
              <g id="Group_282" data-name="Group 282">
                <circle id="Ellipse_31" data-name="Ellipse 31" cx="29.734" cy="29.734" r="29.734" transform="translate(312.781 3537.244)" fill="#3533a2"/>
              </g>
              <g id="Group_283" data-name="Group 283">
                <path id="Path_360" data-name="Path 360" d="M448.968,3587.813c-41.027-12.171-89.093-44.973-89.093-44.973l-38.009,45.529s33.038,28.983,122.737,30.8C445.806,3609.161,447.77,3597.817,448.968,3587.813Z" fill="#3533a2"/>
              </g>
              <g id="Group_284" data-name="Group 284">
                <path id="Path_361" data-name="Path 361" d="M368.872,3547.3a34.588,34.588,0,0,0-18.226-1.335l-.32-1.62a36.236,36.236,0,0,1,19.1,1.4Z"/>
              </g>
              <g id="Group_285" data-name="Group 285">
                <path id="Path_362" data-name="Path 362" d="M448.337,3589.131c-28.01-9.354-61.126-28.014-78.654-37.972l.793-1.447c17.469,9.928,50.467,28.527,78.328,37.837Z"/>
              </g>
            </g>
          </g>
        </g>
        <g id="Group_294" data-name="Group 294">
          <g id="Group_289" data-name="Group 289">
            <path id="Path_363" data-name="Path 363" d="M489.113,3541.442a11.194,11.194,0,0,0,1.793,5.691,13.659,13.659,0,0,0,3.063,3.424c2.754,2.217,7.067,4.116,13.822,4.679a72.291,72.291,0,0,0,17.352-1.837,7.354,7.354,0,0,0,5.661-7.968l-1.649-15.1-5.921-4.272L506.2,3522.4l-13.4,1.729Z" fill="#ffb07b"/>
          </g>
          <g id="Group_290" data-name="Group 290">
            <path id="Path_364" data-name="Path 364" d="M527.08,3535.582l-7.325,13.184-2.372,8.063c-.022,2.207-.051,4.414-.029,6.62l3.255-1.01,6.215-7.327a7.16,7.16,0,0,0,1.664-5.34Z" fill="#ffb07b"/>
            <path id="Path_365" data-name="Path 365" d="M527.9,3535.5l-1.643.163,1.37,13.8a7.253,7.253,0,0,1-1.686,5.408l-5.807,6.847-1.618.5c-.344.685-.692,1.368-1.037,2.052l3.6-1.119,6.571-7.748a7.254,7.254,0,0,0,1.686-5.408Z"/>
          </g>
          <g id="Group_291" data-name="Group 291">
            <path id="Path_366" data-name="Path 366" d="M492.808,3524.126l-12.3,7.143s-10.819,16.415-14.159,18.962c-.488,3.052,2.319,7.081,10.01,3.662s16.3-12.451,16.3-12.451Z" fill="#ffb07b"/>
          </g>
          <g id="Group_292" data-name="Group 292">
            <path id="Path_367" data-name="Path 367" d="M522.2,3534.6l1.64,16a8.835,8.835,0,0,1-1.328,5.636l-4.707,7.423-6.895,4.242a6.09,6.09,0,0,1-8.7-2.593l-.029-.062,8.545-6.1,3.418-9.278-1.159-11.9Z" fill="#ffb07b"/>
            <path id="Path_368" data-name="Path 368" d="M523.018,3534.521l-1.643.169,1.62,15.8a8.584,8.584,0,0,1-1.29,5.473l-4.5,7.094-6.626,4.078a5.433,5.433,0,0,1-2.912.848,5.256,5.256,0,0,1-4.417-2.488l4.634-3.311c-.082-.621-.1-1.26-.221-1.872l-5.968,4.263-.531.463.251.535a6.876,6.876,0,0,0,6.3,4.059,6.923,6.923,0,0,0,3.627-1.025l7.057-4.343,5.01-7.9a8.586,8.586,0,0,0,1.29-5.474Z"/>
          </g>
          <g id="Group_293" data-name="Group 293">
            <path id="Path_369" data-name="Path 369" d="M499.246,3534.361l7.874,20.265,2.554,22.171a2.883,2.883,0,0,0,3.059,2.546l.054,0a2.883,2.883,0,0,0,2.684-2.752l.988-23.06-1.831-18.128Z" fill="#ffb07b"/>
            <path id="Path_370" data-name="Path 370" d="M512.573,3580.172a3.709,3.709,0,0,1-3.72-3.281l-2.541-22.065-7.836-20.166,1.54-.6,7.924,20.47,2.554,22.17a2.086,2.086,0,0,0,4.152-.15l.985-23-1.825-18.069,1.644-.166,1.836,18.188,0,.059-.988,23.06a3.7,3.7,0,0,1-3.452,3.54C512.753,3580.169,512.663,3580.172,512.573,3580.172Z"/>
          </g>
        </g>
      </g>
      <g id="Group_335" data-name="Group 335">
        <g id="Group_296" data-name="Group 296">
          <path id="Path_371" data-name="Path 371" d="M622.79,3608.846c.529,17.726,2.117,39.156,2.117,39.156s52.384,1.852,130.962-1.058c-5.556-80.958-7.671-184.537-42.2-229.381-21.43-9.922-43.521-10.451-72.229-.795-28.609,9.623-36.907,21.43-38.892,25C619.218,3500.5,627.552,3519.95,622.79,3608.846Z" fill="#ffd423"/>
        </g>
        <g id="Group_297" data-name="Group 297">
          <path id="Path_372" data-name="Path 372" d="M607.843,3435.289s-24.209,10.714-28.972,65.877c-4.762,33.733,2.249,48.945,2.249,48.945l34.924,1.191,4.624-55.489a92.891,92.891,0,0,0-9.083-48.44Z" fill="#ffd423"/>
        </g>
        <g id="Group_310" data-name="Group 310">
          <g id="Group_298" data-name="Group 298">
            <path id="Path_373" data-name="Path 373" d="M597.1,3355.6s-9.817,5.96-6.661,14.374a23.157,23.157,0,0,0,10.167,11.921l4.032,7.888,7.362-11.745Z"/>
          </g>
          <g id="Group_299" data-name="Group 299">
            <path id="Path_374" data-name="Path 374" d="M648.291,3400.648s5.084-6.135,1.929-12.621c4.207-.877,3.681-9.466,2.1-13.5s-5.609-8.765-5.609-8.765l-19.633,9.116Z"/>
          </g>
          <g id="Group_300" data-name="Group 300">
            <path id="Path_375" data-name="Path 375" d="M621.471,3402.4l10.693,28.223s4.558,4.382,15.076-.7,11.569-14.55,11.569-14.55l-14.9-29.1Z" fill="#ffb07b"/>
          </g>
          <g id="Group_301" data-name="Group 301">
            <path id="Path_376" data-name="Path 376" d="M641.806,3381.19s2.1,22.438-15.777,27.347-19.809-11.4-23.49-21.387-5.785-20.509-5.609-23.665-1.753-18.756,20.86-17.705S641.455,3361.557,641.806,3381.19Z" fill="#ffb07b"/>
          </g>
          <g id="Group_302" data-name="Group 302">
            <path id="Path_377" data-name="Path 377" d="M592.372,3359.8s-8.418,9.714-.7,12.622c12.095,4.557,18.756-8.239,18.756-8.239s1.019,5.612,10.168,4.908a9.93,9.93,0,0,0,8.764-5.96s4.032,11.569,14.024,12.972c4.558,1.052,5.084.35,5.084.35s1.928-20.86.35-23.84-3.856-8.064-11.043-6.311c1.928-6.836-9.291-15.426-15.251-8.063-2.454-2.63-7.012-4.558-15.076-.176-7.553,4.105-6.135,7.889-6.135,7.889a8.136,8.136,0,0,0-10.167,3.33C589.1,3352.4,588.866,3356.824,592.372,3359.8Z"/>
          </g>
          <g id="Group_303" data-name="Group 303">
            <path id="Path_378" data-name="Path 378" d="M619.368,3399.383a1.733,1.733,0,0,1-1.012-.311l.941-1.357c.04.027.262.046.756-.213a11.3,11.3,0,0,0,4.574-4.435l1.44.809a12.98,12.98,0,0,1-5.249,5.091A3.2,3.2,0,0,1,619.368,3399.383Z"/>
          </g>
          <g id="Group_304" data-name="Group 304">
            <path id="Path_379" data-name="Path 379" d="M623.75,3388.5a8.188,8.188,0,1,1,8.188-8.188A8.2,8.2,0,0,1,623.75,3388.5Zm0-14.725a6.536,6.536,0,1,0,6.537,6.537A6.545,6.545,0,0,0,623.75,3373.777Z"/>
          </g>
          <g id="Group_305" data-name="Group 305">
            <path id="Path_380" data-name="Path 380" d="M605.169,3396.391a8.189,8.189,0,1,1,8.188-8.189A8.2,8.2,0,0,1,605.169,3396.391Zm0-14.725a6.536,6.536,0,1,0,6.536,6.536A6.544,6.544,0,0,0,605.169,3381.666Z"/>
          </g>
          <g id="Group_306" data-name="Group 306">
            <path id="Path_381" data-name="Path 381" d="M612.04,3385.427l-1.005-1.31a10.683,10.683,0,0,1,5.642-2.156l.125,1.647A9.024,9.024,0,0,0,612.04,3385.427Z"/>
          </g>
          <g id="Group_307" data-name="Group 307">
            <path id="Path_382" data-name="Path 382" d="M636.722,3374.529s2.454-6.836,8.064-4.733,4.382,15.952-3.857,14.9Z" fill="#ffb07b"/>
            <path id="Path_383" data-name="Path 383" d="M641.79,3385.578a7.842,7.842,0,0,1-.966-.062l.209-1.639c4.36.565,5.74-3.62,6.06-4.913.813-3.279-.037-7.435-2.6-8.4a4.332,4.332,0,0,0-3.487.027c-2.369,1.1-3.5,4.181-3.51,4.212l-1.555-.558c.056-.153,1.382-3.768,4.371-5.153a5.98,5.98,0,0,1,4.761-.075c3.541,1.328,4.622,6.3,3.621,10.339C647.728,3383.272,645.126,3385.578,641.79,3385.578Z"/>
          </g>
          <g id="Group_308" data-name="Group 308">
            <path id="Path_384" data-name="Path 384" d="M614.026,3396.127H614a2.183,2.183,0,0,1-1.759-.766,2.618,2.618,0,0,1-.422-1.774c.045-1.246-.024-3.478-.1-5.841a88.314,88.314,0,0,1-.01-9.456l1.64.191a88.768,88.768,0,0,0,.021,9.215c.074,2.391.144,4.649.1,5.951a1.535,1.535,0,0,0,.072.7.671.671,0,0,0,.471.132h.014a1.932,1.932,0,0,0,1.365-.579l1.189,1.147A3.566,3.566,0,0,1,614.026,3396.127Z"/>
          </g>
          <g id="Group_309" data-name="Group 309">
            <path id="Path_385" data-name="Path 385" d="M642.052,3387.249s3.506,12.271-3.506,20.86-12.446,5.96-12.446,5.96l-2.1-4.908S637.319,3408.811,642.052,3387.249Z"/>
          </g>
        </g>
        <g id="Group_326" data-name="Group 326">
          <g id="Group_315" data-name="Group 315">
            <g id="Group_311" data-name="Group 311">
              <path id="Path_386" data-name="Path 386" d="M663.269,3595.551,590.5,3610.737l-2-3.808c-1.29-2.481-3.424-2.013-4.643-1.7l-.045.012a2.515,2.515,0,0,0-1.811,3.025l3.324,11.754s9.887.528,46.2-.464,44.249-6.35,44.249-6.35Z" fill="#ffb07b"/>
            </g>
            <g id="Group_312" data-name="Group 312">
              <path id="Path_387" data-name="Path 387" d="M556.714,3555.469,633.9,3538.4l37.5,57.346-81.355,17.263Z" fill="#fff"/>
              <path id="Path_388" data-name="Path 388" d="M589.427,3614.412l-34.634-59.787,79.677-17.615,38.962,59.576Zm-30.792-58.1,32.036,55.3,78.707-16.7L633.334,3539.8Z"/>
            </g>
            <g id="Group_313" data-name="Group 313">
              <path id="Path_389" data-name="Path 389" d="M652.025,3604.547s-9.326-5.755-16.866-2.977-9.723,5.358-9.723,5.358l-19.446,2.182s-2.58,2.58-.992,4.564,36.312,2.58,36.312,2.58Z" fill="#ffb07b"/>
              <path id="Path_390" data-name="Path 390" d="M641.3,3617.08c-10.557-.182-35.292-.825-36.943-2.889-1.618-2.022-.1-4.512,1.053-5.665l.2-.2,19.439-2.182c.763-.743,3.434-2.99,9.824-5.344,7.829-2.885,17.191,2.805,17.586,3.049l-.867,1.406c-.09-.057-9.079-5.512-16.148-2.905-7.167,2.64-9.36,5.1-9.382,5.12l-.211.243-.323.041-19.136,2.147c-.474.555-1.65,2.137-.749,3.262,1.521,1.084,19.533,1.993,35.681,2.27Z"/>
            </g>
            <g id="Group_314" data-name="Group 314">
              <path id="Path_391" data-name="Path 391" d="M585.123,3618.934l-3.324-10.961a2.518,2.518,0,0,1,1.811-3.025l.046-.012c1.218-.318,3.253-.488,4.047,1.893l3.869,8.334Z" fill="#ffb07b"/>
              <path id="Path_392" data-name="Path 392" d="M584.333,3619.173l-3.324-10.961a3.366,3.366,0,0,1,2.392-4.063c2.5-.651,4.33.218,5.07,2.373l3.851,8.294-1.5.7-3.9-8.421c-.282-.849-.905-1.914-3.055-1.355a1.709,1.709,0,0,0-1.261,2.044l3.311,10.915Z"/>
            </g>
          </g>
          <g id="Group_321" data-name="Group 321">
            <g id="Group_316" data-name="Group 316">
              <path id="Path_393" data-name="Path 393" d="M705.1,3455.468s26.38,80.616,35.64,112.629a429.482,429.482,0,0,0,49.861-11.406s-30.367-117.963-80.636-140.716C681.394,3405.922,705.1,3455.468,705.1,3455.468Z" fill="#ffd423"/>
            </g>
            <g id="Group_317" data-name="Group 317">
              <path id="Path_394" data-name="Path 394" d="M738.173,3563.07c-7.026-24.289-21.976-72.205-32.184-97.38l1.531-.621c10.231,25.234,25.2,73.221,32.239,97.542Z" fill="#fff"/>
            </g>
            <g id="Group_318" data-name="Group 318">
              <path id="Path_395" data-name="Path 395" d="M734.787,3546.819l-1.435-.817a80.158,80.158,0,0,1,18.72-22.265l1.051,1.275A79.029,79.029,0,0,0,734.787,3546.819Z" fill="#fff"/>
            </g>
            <g id="Group_319" data-name="Group 319">
              <path id="Path_396" data-name="Path 396" d="M738.335,3545.785l-.923-1.369a133.457,133.457,0,0,1,26.062-13.654l.6,1.539A131.9,131.9,0,0,0,738.335,3545.785Z" fill="#fff"/>
            </g>
            <g id="Group_320" data-name="Group 320">
              <circle id="Ellipse_32" data-name="Ellipse 32" cx="25.604" cy="25.604" r="25.604" transform="translate(729.186 3561.188) rotate(-45)" fill="#fdcc46"/>
            </g>
          </g>
          <g id="Group_325" data-name="Group 325">
            <g id="Group_322" data-name="Group 322">
              <circle id="Ellipse_33" data-name="Ellipse 33" cx="25.604" cy="25.604" r="25.604" transform="translate(729.186 3561.188) rotate(-45)" fill="#fdcc46"/>
            </g>
            <g id="Group_323" data-name="Group 323">
              <path id="Path_397" data-name="Path 397" d="M661.682,3596.676s72.174-43.645,92.285-58.4c15.091,22.26,26.858,43.347,26.858,43.347-13.764,8.94-56.6,28.588-114.381,34.368C661.682,3598.528,661.682,3596.676,661.682,3596.676Z" fill="#fdcc46"/>
            </g>
            <g id="Group_324" data-name="Group 324">
              <path id="Path_398" data-name="Path 398" d="M691.047,3579.871l-.794-1.449c27.931-16.6,39.235-23.786,52.994-32.667l.99,1.322C732.8,3554.958,710.344,3568.868,691.047,3579.871Z" fill="#fff"/>
            </g>
          </g>
        </g>
        <g id="Group_334" data-name="Group 334">
          <g id="Group_327" data-name="Group 327">
            <path id="Path_399" data-name="Path 399" d="M565.309,3556a50.159,50.159,0,0,0,16.433,9.735l13.187-29L582.294,3524.3l-.15.083-.13.071a30.224,30.224,0,0,0-15.288,21.839C565.955,3551.269,565.292,3555.668,565.309,3556Z" fill="#ffb07b"/>
          </g>
          <g id="Group_328" data-name="Group 328">
            <path id="Path_400" data-name="Path 400" d="M579.049,3564.7s9.8,4,11.669,3.8,5.73-.483,6.352-3.8c-5.9-1.865-12.085-4.612-14.6-5.595Z" fill="#ffb07b"/>
          </g>
          <g id="Group_329" data-name="Group 329">
            <path id="Path_401" data-name="Path 401" d="M581.051,3561.589l10.012,4.764,2.736.279a7.066,7.066,0,0,0,6.422-2.858l.992-1.771-16.847-6.214Z" fill="#ffb07b"/>
            <path id="Path_402" data-name="Path 402" d="M594.509,3567.494a7.528,7.528,0,0,1-.793-.041l-2.879-.293-10.14-4.826.709-1.491,9.883,4.7,2.594.264a6.274,6.274,0,0,0,5.642-2.485l.494-.882-15.94-5.879.572-1.55,17.755,6.548-1.519,2.7A7.927,7.927,0,0,1,594.509,3567.494Z"/>
          </g>
          <g id="Group_330" data-name="Group 330">
            <path id="Path_403" data-name="Path 403" d="M565.93,3505.662l4.557-3.107,43.291,56.963,3.521,9.114-7.664-6.007Z" fill="#fff"/>
            <path id="Path_404" data-name="Path 404" d="M619.152,3571.132l-10.171-8.005-44.237-57.655,5.926-4.041,43.879,57.789Zm-8.924-9.093,5.221,4.092-2.4-6.207L570.3,3503.679l-3.188,2.173Z"/>
          </g>
          <g id="Group_331" data-name="Group 331">
            <path id="Path_405" data-name="Path 405" d="M583.192,3557.032l10.874,4.246,4.2.783a5.442,5.442,0,0,0,5.836-3.623l.628-1.821-18.015-7.352Z" fill="#ffb07b"/>
            <path id="Path_406" data-name="Path 406" d="M598.955,3562.931a6.138,6.138,0,0,1-.789-.051l-4.4-.833-10.875-4.246.6-1.539,10.8,4.218,4.128.77a4.622,4.622,0,0,0,4.9-3.081l.408-1.181-13.571-7.944.835-1.425,14.738,8.628-.848,2.461A6.3,6.3,0,0,1,598.955,3562.931Z"/>
          </g>
          <g id="Group_332" data-name="Group 332">
            <path id="Path_407" data-name="Path 407" d="M608.012,3548.933c-6.006,1.657-8.1-3.228-10.325-11.923L587.4,3523.457l5.43,2.029c3.576,1.208,11.909,4.469,11.909,4.469S608.03,3548.791,608.012,3548.933Z" fill="#ffb07b"/>
          </g>
          <g id="Group_333" data-name="Group 333">
            <path id="Path_408" data-name="Path 408" d="M587.68,3537.837a73.8,73.8,0,0,0,9.114,8.216c4.557,3.315,10.564,7.043,10.564,7.043l-.222.561a5.088,5.088,0,0,1-5.777,3.116l-5.118-.777L587.4,3551.1Z" fill="#ffb07b"/>
            <path id="Path_409" data-name="Path 409" d="M602.413,3557.709a5.954,5.954,0,0,1-1.223-.127l-5.219-.792-8.976-4.963.8-1.446,8.717,4.82,4.971.756a4.264,4.264,0,0,0,4.854-2.526c-1.627-1.024-6.328-4.018-10.029-6.71a73.853,73.853,0,0,1-9.261-8.353l1.265-1.063a73.127,73.127,0,0,0,8.968,8.081c4.479,3.257,10.454,6.971,10.513,7.008l.586.364-.474,1.2A5.9,5.9,0,0,1,602.413,3557.709Z"/>
          </g>
        </g>
      </g>
    </g>
  </g>
</svg>
